<?xml version="1.0" encoding="utf-8"?>
<!-- Generator: Adobe Illustrator 21.0.0, SVG Export Plug-In . SVG Version: 6.00 Build 0)  -->
<svg version="1.1" xmlns="http://www.w3.org/2000/svg" xmlns:xlink="http://www.w3.org/1999/xlink" x="0px" y="0px"
	 viewBox="0 0 500 257" style="enable-background:new 0 0 500 257;" xml:space="preserve">
<style type="text/css">
	.st0{filter:url(#Adobe_OpacityMaskFilter);}
	.st1{fill:#FFFFFF;}
	.st2{mask:url(#mask1_outline_ins);}
	.st3{filter:url(#Adobe_OpacityMaskFilter_1_);}
	.st4{mask:url(#mask3_outline_ins);}
	.st5{filter:url(#Adobe_OpacityMaskFilter_2_);}
	.st6{mask:url(#mask5_outline_ins);}
	.st7{filter:url(#Adobe_OpacityMaskFilter_3_);}
	.st8{mask:url(#mask7_outline_ins);}
	.st9{filter:url(#Adobe_OpacityMaskFilter_4_);}
	.st10{mask:url(#mask9_outline_ins);}
	.st11{filter:url(#Adobe_OpacityMaskFilter_5_);}
	.st12{mask:url(#mask11_outline_ins);}
	.st13{filter:url(#Adobe_OpacityMaskFilter_6_);}
	.st14{mask:url(#mask13_outline_ins);}
	.st15{filter:url(#Adobe_OpacityMaskFilter_7_);}
	.st16{mask:url(#mask15_outline_ins);}
	.st17{filter:url(#Adobe_OpacityMaskFilter_8_);}
	.st18{mask:url(#mask17_outline_ins);}
	.st19{filter:url(#Adobe_OpacityMaskFilter_9_);}
	.st20{mask:url(#mask19_outline_ins);}
	.st21{filter:url(#Adobe_OpacityMaskFilter_10_);}
	.st22{mask:url(#mask21_outline_ins);}
	.st23{filter:url(#Adobe_OpacityMaskFilter_11_);}
	.st24{mask:url(#mask23_outline_ins);}
	.st25{filter:url(#Adobe_OpacityMaskFilter_12_);}
	.st26{mask:url(#mask25_outline_ins);}
	.st27{filter:url(#Adobe_OpacityMaskFilter_13_);}
	.st28{mask:url(#mask27_outline_ins);}
	.st29{filter:url(#Adobe_OpacityMaskFilter_14_);}
	.st30{mask:url(#mask29_outline_ins);}
	.st31{filter:url(#Adobe_OpacityMaskFilter_15_);}
	.st32{mask:url(#mask31_outline_ins);}
	.st33{fill:none;stroke:#000000;stroke-miterlimit:10;}
	.st34{font-family:'Digital-7Mono';}
	.st35{font-size:56px;}
</style>
<g id="Layer_1" xmlns:figma="http://www.figma.com/figma/ns">
	<title>keybored LINES</title>
	<desc>Created using Figma</desc>
	<g id="Canvas" transform="translate(-1592 1109)" figma:type="canvas">
		<g id="keybored_LINES" figma:type="frame">
			<g id="Vector_1_" figma:type="vector">
				<defs>
					<filter id="Adobe_OpacityMaskFilter" filterUnits="userSpaceOnUse" x="1603.6" y="-1098" width="55.1" height="55.1">
						<feColorMatrix  type="matrix" values="1 0 0 0 0  0 1 0 0 0  0 0 1 0 0  0 0 0 1 0"/>
					</filter>
				</defs>
				<mask maskUnits="userSpaceOnUse" x="1603.6" y="-1098" width="55.1" height="55.1" id="mask1_outline_ins">
					<g transform="translate(1604.64 -1096.99)" class="st0">
						<path id="path2_fill" class="st1" d="M1657.7-1097h-53.1v53.1h53.1V-1097z"/>
					</g>
				</mask>
				<g class="st2">
					<g transform="translate(1604.64 -1096.99)">
						<path id="path3_stroke_2x" d="M1604.6-1097v-1h-1v1H1604.6z M1657.7-1097h1v-1h-1V-1097z M1657.7-1043.9v1h1v-1H1657.7z
							 M1604.6-1043.9h-1v1h1V-1043.9z M1604.6-1096h53.1v-2h-53.1V-1096z M1656.7-1097v53.1h2v-53.1H1656.7z M1657.7-1044.9h-53.1
							v2h53.1V-1044.9z M1605.6-1043.9v-53.1h-2v53.1H1605.6z"/>
					</g>
				</g>
			</g>
			<g id="Vector_3_" figma:type="vector">
				<defs>
					<filter id="Adobe_OpacityMaskFilter_1_" filterUnits="userSpaceOnUse" x="1663.1" y="-1098" width="55.1" height="55.1">
						<feColorMatrix  type="matrix" values="1 0 0 0 0  0 1 0 0 0  0 0 1 0 0  0 0 0 1 0"/>
					</filter>
				</defs>
				<mask maskUnits="userSpaceOnUse" x="1663.1" y="-1098" width="55.1" height="55.1" id="mask3_outline_ins">
					<g transform="translate(1664.06 -1096.99)" class="st3">
						<path id="path2_fill_1_" class="st1" d="M1717.2-1097h-53.1v53.1h53.1V-1097z"/>
					</g>
				</mask>
				<g class="st4">
					<g transform="translate(1664.06 -1096.99)">
						<path id="path3_stroke_2x_1_" d="M1664.1-1097v-1h-1v1H1664.1z M1717.2-1097h1v-1h-1V-1097z M1717.2-1043.9v1h1v-1H1717.2z
							 M1664.1-1043.9h-1v1h1V-1043.9z M1664.1-1096h53.1v-2h-53.1V-1096z M1716.2-1097v53.1h2v-53.1H1716.2z M1717.2-1044.9h-53.1
							v2h53.1V-1044.9z M1665.1-1043.9v-53.1h-2v53.1H1665.1z"/>
					</g>
				</g>
			</g>
			<g id="Vector_5_" figma:type="vector">
				<defs>
					<filter id="Adobe_OpacityMaskFilter_2_" filterUnits="userSpaceOnUse" x="1603.6" y="-1038.6" width="55.1" height="55.1">
						<feColorMatrix  type="matrix" values="1 0 0 0 0  0 1 0 0 0  0 0 1 0 0  0 0 0 1 0"/>
					</filter>
				</defs>
				<mask maskUnits="userSpaceOnUse" x="1603.6" y="-1038.6" width="55.1" height="55.1" id="mask5_outline_ins">
					<g transform="translate(1604.64 -1037.6)" class="st5">
						<path id="path2_fill_2_" class="st1" d="M1657.7-1037.6h-53.1v53.1h53.1V-1037.6z"/>
					</g>
				</mask>
				<g class="st6">
					<g transform="translate(1604.64 -1037.6)">
						<path id="path3_stroke_2x_2_" d="M1604.6-1037.6v-1h-1v1H1604.6z M1657.7-1037.6h1v-1h-1V-1037.6z M1657.7-984.5v1h1v-1
							H1657.7z M1604.6-984.5h-1v1h1V-984.5z M1604.6-1036.6h53.1v-2h-53.1V-1036.6z M1656.7-1037.6v53.1h2v-53.1H1656.7z
							 M1657.7-985.5h-53.1v2h53.1V-985.5z M1605.6-984.5v-53.1h-2v53.1H1605.6z"/>
					</g>
				</g>
			</g>
			<g id="Vector_7_" figma:type="vector">
				<defs>
					<filter id="Adobe_OpacityMaskFilter_3_" filterUnits="userSpaceOnUse" x="1663.1" y="-1039.2" width="55.1" height="55.1">
						<feColorMatrix  type="matrix" values="1 0 0 0 0  0 1 0 0 0  0 0 1 0 0  0 0 0 1 0"/>
					</filter>
				</defs>
				<mask maskUnits="userSpaceOnUse" x="1663.1" y="-1039.2" width="55.1" height="55.1" id="mask7_outline_ins">
					<g transform="translate(1664.06 -1038.23)" class="st7">
						<path id="path2_fill_3_" class="st1" d="M1717.2-1038.2h-53.1v53.1h53.1V-1038.2z"/>
					</g>
				</mask>
				<g class="st8">
					<g transform="translate(1664.06 -1038.23)">
						<path id="path3_stroke_2x_3_" d="M1664.1-1038.2v-1h-1v1H1664.1z M1717.2-1038.2h1v-1h-1V-1038.2z M1717.2-985.2v1h1v-1
							H1717.2z M1664.1-985.2h-1v1h1V-985.2z M1664.1-1037.2h53.1v-2h-53.1V-1037.2z M1716.2-1038.2v53.1h2v-53.1H1716.2z
							 M1717.2-986.2h-53.1v2h53.1V-986.2z M1665.1-985.2v-53.1h-2v53.1H1665.1z"/>
					</g>
				</g>
			</g>
			<g id="Vector_9_" figma:type="vector">
				<defs>
					<filter id="Adobe_OpacityMaskFilter_4_" filterUnits="userSpaceOnUse" x="1603.6" y="-979.8" width="55.1" height="55.1">
						<feColorMatrix  type="matrix" values="1 0 0 0 0  0 1 0 0 0  0 0 1 0 0  0 0 0 1 0"/>
					</filter>
				</defs>
				<mask maskUnits="userSpaceOnUse" x="1603.6" y="-979.8" width="55.1" height="55.1" id="mask9_outline_ins">
					<g transform="translate(1604.64 -978.833)" class="st9">
						<path id="path2_fill_4_" class="st1" d="M1657.7-978.8h-53.1v53.1h53.1V-978.8z"/>
					</g>
				</mask>
				<g class="st10">
					<g transform="translate(1604.64 -978.833)">
						<path id="path3_stroke_2x_4_" d="M1604.6-978.8v-1h-1v1H1604.6z M1657.7-978.8h1v-1h-1V-978.8z M1657.7-925.8v1h1v-1H1657.7z
							 M1604.6-925.8h-1v1h1V-925.8z M1604.6-977.8h53.1v-2h-53.1V-977.8z M1656.7-978.8v53.1h2v-53.1H1656.7z M1657.7-926.8h-53.1
							v2h53.1V-926.8z M1605.6-925.8v-53.1h-2v53.1H1605.6z"/>
					</g>
				</g>
			</g>
			<g id="Vector_11_" figma:type="vector">
				<defs>
					<filter id="Adobe_OpacityMaskFilter_5_" filterUnits="userSpaceOnUse" x="1663.1" y="-979.8" width="55.1" height="55.1">
						<feColorMatrix  type="matrix" values="1 0 0 0 0  0 1 0 0 0  0 0 1 0 0  0 0 0 1 0"/>
					</filter>
				</defs>
				<mask maskUnits="userSpaceOnUse" x="1663.1" y="-979.8" width="55.1" height="55.1" id="mask11_outline_ins">
					<g transform="translate(1664.06 -978.833)" class="st11">
						<path id="path2_fill_5_" class="st1" d="M1717.2-978.8h-53.1v53.1h53.1V-978.8z"/>
					</g>
				</mask>
				<g class="st12">
					<g transform="translate(1664.06 -978.833)">
						<path id="path3_stroke_2x_5_" d="M1664.1-978.8v-1h-1v1H1664.1z M1717.2-978.8h1v-1h-1V-978.8z M1717.2-925.8v1h1v-1H1717.2z
							 M1664.1-925.8h-1v1h1V-925.8z M1664.1-977.8h53.1v-2h-53.1V-977.8z M1716.2-978.8v53.1h2v-53.1H1716.2z M1717.2-926.8h-53.1
							v2h53.1V-926.8z M1665.1-925.8v-53.1h-2v53.1H1665.1z"/>
					</g>
				</g>
			</g>
			<g id="Vector_13_" figma:type="vector">
				<defs>
					<filter id="Adobe_OpacityMaskFilter_6_" filterUnits="userSpaceOnUse" x="1603.6" y="-920.4" width="55.1" height="55.1">
						<feColorMatrix  type="matrix" values="1 0 0 0 0  0 1 0 0 0  0 0 1 0 0  0 0 0 1 0"/>
					</filter>
				</defs>
				<mask maskUnits="userSpaceOnUse" x="1603.6" y="-920.4" width="55.1" height="55.1" id="mask13_outline_ins">
					<g transform="translate(1604.64 -919.436)" class="st13">
						<path id="path2_fill_6_" class="st1" d="M1657.7-919.4h-53.1v53.1h53.1V-919.4z"/>
					</g>
				</mask>
				<g class="st14">
					<g transform="translate(1604.64 -919.436)">
						<path id="path3_stroke_2x_6_" d="M1604.6-919.4v-1h-1v1H1604.6z M1657.7-919.4h1v-1h-1V-919.4z M1657.7-866.4v1h1v-1H1657.7z
							 M1604.6-866.4h-1v1h1V-866.4z M1604.6-918.4h53.1v-2h-53.1V-918.4z M1656.7-919.4v53.1h2v-53.1H1656.7z M1657.7-867.4h-53.1
							v2h53.1V-867.4z M1605.6-866.4v-53.1h-2v53.1H1605.6z"/>
					</g>
				</g>
			</g>
			<g id="Vector_15_" figma:type="vector">
				<defs>
					<filter id="Adobe_OpacityMaskFilter_7_" filterUnits="userSpaceOnUse" x="1663.1" y="-921.1" width="55.1" height="55.1">
						<feColorMatrix  type="matrix" values="1 0 0 0 0  0 1 0 0 0  0 0 1 0 0  0 0 0 1 0"/>
					</filter>
				</defs>
				<mask maskUnits="userSpaceOnUse" x="1663.1" y="-921.1" width="55.1" height="55.1" id="mask15_outline_ins">
					<g transform="translate(1664.06 -920.068)" class="st15">
						<path id="path2_fill_7_" class="st1" d="M1717.2-920.1h-53.1v53.1h53.1V-920.1z"/>
					</g>
				</mask>
				<g class="st16">
					<g transform="translate(1664.06 -920.068)">
						<path id="path3_stroke_2x_7_" d="M1664.1-920.1v-1h-1v1H1664.1z M1717.2-920.1h1v-1h-1V-920.1z M1717.2-867v1h1v-1H1717.2z
							 M1664.1-867h-1v1h1V-867z M1664.1-919.1h53.1v-2h-53.1V-919.1z M1716.2-920.1v53.1h2v-53.1H1716.2z M1717.2-868h-53.1v2h53.1
							V-868z M1665.1-867v-53.1h-2v53.1H1665.1z"/>
					</g>
				</g>
			</g>
			<g id="Vector_17_" figma:type="vector">
				<defs>
					<filter id="Adobe_OpacityMaskFilter_8_" filterUnits="userSpaceOnUse" x="1722.5" y="-1098" width="55.1" height="55.1">
						<feColorMatrix  type="matrix" values="1 0 0 0 0  0 1 0 0 0  0 0 1 0 0  0 0 0 1 0"/>
					</filter>
				</defs>
				<mask maskUnits="userSpaceOnUse" x="1722.5" y="-1098" width="55.1" height="55.1" id="mask17_outline_ins">
					<g transform="translate(1723.48 -1096.99)" class="st17">
						<path id="path2_fill_8_" class="st1" d="M1776.6-1097h-53.1v53.1h53.1V-1097z"/>
					</g>
				</mask>
				<g class="st18">
					<g transform="translate(1723.48 -1096.99)">
						<path id="path3_stroke_2x_8_" d="M1723.5-1097v-1h-1v1H1723.5z M1776.6-1097h1v-1h-1V-1097z M1776.6-1043.9v1h1v-1H1776.6z
							 M1723.5-1043.9h-1v1h1V-1043.9z M1723.5-1096h53.1v-2h-53.1V-1096z M1775.6-1097v53.1h2v-53.1H1775.6z M1776.6-1044.9h-53.1
							v2h53.1V-1044.9z M1724.5-1043.9v-53.1h-2v53.1H1724.5z"/>
					</g>
				</g>
			</g>
			<g id="Vector_19_" figma:type="vector">
				<defs>
					<filter id="Adobe_OpacityMaskFilter_9_" filterUnits="userSpaceOnUse" x="1781.9" y="-1098" width="55.1" height="55.1">
						<feColorMatrix  type="matrix" values="1 0 0 0 0  0 1 0 0 0  0 0 1 0 0  0 0 0 1 0"/>
					</filter>
				</defs>
				<mask maskUnits="userSpaceOnUse" x="1781.9" y="-1098" width="55.1" height="55.1" id="mask19_outline_ins">
					<g transform="translate(1782.9 -1096.99)" class="st19">
						<path id="path2_fill_9_" class="st1" d="M1836-1097h-53.1v53.1h53.1V-1097z"/>
					</g>
				</mask>
				<g class="st20">
					<g transform="translate(1782.9 -1096.99)">
						<path id="path3_stroke_2x_9_" d="M1782.9-1097v-1h-1v1H1782.9z M1836-1097h1v-1h-1V-1097z M1836-1043.9v1h1v-1H1836z
							 M1782.9-1043.9h-1v1h1V-1043.9z M1782.9-1096h53.1v-2h-53.1V-1096z M1835-1097v53.1h2v-53.1H1835z M1836-1044.9h-53.1v2h53.1
							V-1044.9z M1783.9-1043.9v-53.1h-2v53.1H1783.9z"/>
					</g>
				</g>
			</g>
			<g id="Vector_21_" figma:type="vector">
				<defs>
					<filter id="Adobe_OpacityMaskFilter_10_" filterUnits="userSpaceOnUse" x="1722.5" y="-1038.6" width="55.1" height="55.1">
						<feColorMatrix  type="matrix" values="1 0 0 0 0  0 1 0 0 0  0 0 1 0 0  0 0 0 1 0"/>
					</filter>
				</defs>
				<mask maskUnits="userSpaceOnUse" x="1722.5" y="-1038.6" width="55.1" height="55.1" id="mask21_outline_ins">
					<g transform="translate(1723.48 -1037.6)" class="st21">
						<path id="path2_fill_10_" class="st1" d="M1776.6-1037.6h-53.1v53.1h53.1V-1037.6z"/>
					</g>
				</mask>
				<g class="st22">
					<g transform="translate(1723.48 -1037.6)">
						<path id="path3_stroke_2x_10_" d="M1723.5-1037.6v-1h-1v1H1723.5z M1776.6-1037.6h1v-1h-1V-1037.6z M1776.6-984.5v1h1v-1
							H1776.6z M1723.5-984.5h-1v1h1V-984.5z M1723.5-1036.6h53.1v-2h-53.1V-1036.6z M1775.6-1037.6v53.1h2v-53.1H1775.6z
							 M1776.6-985.5h-53.1v2h53.1V-985.5z M1724.5-984.5v-53.1h-2v53.1H1724.5z"/>
					</g>
				</g>
			</g>
			<g id="Vector_23_" figma:type="vector">
				<defs>
					<filter id="Adobe_OpacityMaskFilter_11_" filterUnits="userSpaceOnUse" x="1781.9" y="-1039.2" width="55.1" height="55.1">
						<feColorMatrix  type="matrix" values="1 0 0 0 0  0 1 0 0 0  0 0 1 0 0  0 0 0 1 0"/>
					</filter>
				</defs>
				<mask maskUnits="userSpaceOnUse" x="1781.9" y="-1039.2" width="55.1" height="55.1" id="mask23_outline_ins">
					<g transform="translate(1782.9 -1038.23)" class="st23">
						<path id="path2_fill_11_" class="st1" d="M1836-1038.2h-53.1v53.1h53.1V-1038.2z"/>
					</g>
				</mask>
				<g class="st24">
					<g transform="translate(1782.9 -1038.23)">
						<path id="path3_stroke_2x_11_" d="M1782.9-1038.2v-1h-1v1H1782.9z M1836-1038.2h1v-1h-1V-1038.2z M1836-985.2v1h1v-1H1836z
							 M1782.9-985.2h-1v1h1V-985.2z M1782.9-1037.2h53.1v-2h-53.1V-1037.2z M1835-1038.2v53.1h2v-53.1H1835z M1836-986.2h-53.1v2
							h53.1V-986.2z M1783.9-985.2v-53.1h-2v53.1H1783.9z"/>
					</g>
				</g>
			</g>
			<g id="Vector_25_" figma:type="vector">
				<defs>
					<filter id="Adobe_OpacityMaskFilter_12_" filterUnits="userSpaceOnUse" x="1722.5" y="-979.8" width="55.1" height="55.1">
						<feColorMatrix  type="matrix" values="1 0 0 0 0  0 1 0 0 0  0 0 1 0 0  0 0 0 1 0"/>
					</filter>
				</defs>
				<mask maskUnits="userSpaceOnUse" x="1722.5" y="-979.8" width="55.1" height="55.1" id="mask25_outline_ins">
					<g transform="translate(1723.48 -978.833)" class="st25">
						<path id="path2_fill_12_" class="st1" d="M1776.6-978.8h-53.1v53.1h53.1V-978.8z"/>
					</g>
				</mask>
				<g class="st26">
					<g transform="translate(1723.48 -978.833)">
						<path id="path3_stroke_2x_12_" d="M1723.5-978.8v-1h-1v1H1723.5z M1776.6-978.8h1v-1h-1V-978.8z M1776.6-925.8v1h1v-1H1776.6z
							 M1723.5-925.8h-1v1h1V-925.8z M1723.5-977.8h53.1v-2h-53.1V-977.8z M1775.6-978.8v53.1h2v-53.1H1775.6z M1776.6-926.8h-53.1
							v2h53.1V-926.8z M1724.5-925.8v-53.1h-2v53.1H1724.5z"/>
					</g>
				</g>
			</g>
			<g id="Vector_27_" figma:type="vector">
				<defs>
					<filter id="Adobe_OpacityMaskFilter_13_" filterUnits="userSpaceOnUse" x="1781.9" y="-979.8" width="55.1" height="55.1">
						<feColorMatrix  type="matrix" values="1 0 0 0 0  0 1 0 0 0  0 0 1 0 0  0 0 0 1 0"/>
					</filter>
				</defs>
				<mask maskUnits="userSpaceOnUse" x="1781.9" y="-979.8" width="55.1" height="55.1" id="mask27_outline_ins">
					<g transform="translate(1782.9 -978.833)" class="st27">
						<path id="path2_fill_13_" class="st1" d="M1836-978.8h-53.1v53.1h53.1V-978.8z"/>
					</g>
				</mask>
				<g class="st28">
					<g transform="translate(1782.9 -978.833)">
						<path id="path3_stroke_2x_13_" d="M1782.9-978.8v-1h-1v1H1782.9z M1836-978.8h1v-1h-1V-978.8z M1836-925.8v1h1v-1H1836z
							 M1782.9-925.8h-1v1h1V-925.8z M1782.9-977.8h53.1v-2h-53.1V-977.8z M1835-978.8v53.1h2v-53.1H1835z M1836-926.8h-53.1v2h53.1
							V-926.8z M1783.9-925.8v-53.1h-2v53.1H1783.9z"/>
					</g>
				</g>
			</g>
			<g id="Vector_29_" figma:type="vector">
				<defs>
					<filter id="Adobe_OpacityMaskFilter_14_" filterUnits="userSpaceOnUse" x="1722.5" y="-920.4" width="55.1" height="55.1">
						<feColorMatrix  type="matrix" values="1 0 0 0 0  0 1 0 0 0  0 0 1 0 0  0 0 0 1 0"/>
					</filter>
				</defs>
				<mask maskUnits="userSpaceOnUse" x="1722.5" y="-920.4" width="55.1" height="55.1" id="mask29_outline_ins">
					<g transform="translate(1723.48 -919.436)" class="st29">
						<path id="path2_fill_14_" class="st1" d="M1776.6-919.4h-53.1v53.1h53.1V-919.4z"/>
					</g>
				</mask>
				<g class="st30">
					<g transform="translate(1723.48 -919.436)">
						<path id="path3_stroke_2x_14_" d="M1723.5-919.4v-1h-1v1H1723.5z M1776.6-919.4h1v-1h-1V-919.4z M1776.6-866.4v1h1v-1H1776.6z
							 M1723.5-866.4h-1v1h1V-866.4z M1723.5-918.4h53.1v-2h-53.1V-918.4z M1775.6-919.4v53.1h2v-53.1H1775.6z M1776.6-867.4h-53.1
							v2h53.1V-867.4z M1724.5-866.4v-53.1h-2v53.1H1724.5z"/>
					</g>
				</g>
			</g>
			<g id="Vector_31_" figma:type="vector">
				<defs>
					<filter id="Adobe_OpacityMaskFilter_15_" filterUnits="userSpaceOnUse" x="1781.9" y="-921.1" width="55.1" height="55.1">
						<feColorMatrix  type="matrix" values="1 0 0 0 0  0 1 0 0 0  0 0 1 0 0  0 0 0 1 0"/>
					</filter>
				</defs>
				<mask maskUnits="userSpaceOnUse" x="1781.9" y="-921.1" width="55.1" height="55.1" id="mask31_outline_ins">
					<g transform="translate(1782.9 -920.068)" class="st31">
						<path id="path2_fill_15_" class="st1" d="M1836-920.1h-53.1v53.1h53.1V-920.1z"/>
					</g>
				</mask>
				<g class="st32">
					<g transform="translate(1782.9 -920.068)">
						<path id="path3_stroke_2x_15_" d="M1782.9-920.1v-1h-1v1H1782.9z M1836-920.1h1v-1h-1V-920.1z M1836-867v1h1v-1H1836z
							 M1782.9-867h-1v1h1V-867z M1782.9-919.1h53.1v-2h-53.1V-919.1z M1835-920.1v53.1h2v-53.1H1835z M1836-868h-53.1v2h53.1V-868z
							 M1783.9-867v-53.1h-2v53.1H1783.9z"/>
					</g>
				</g>
			</g>
		</g>
	</g>
</g>
<g id="Layer_2">
	<text transform="matrix(1 0 0 1 26.4611 56.1665)" class="st33 st34 st35">4</text>
	<text transform="matrix(1 0 0 1 85.8817 56.1665)" class="st33 st34 st35">5</text>
	<text transform="matrix(1 0 0 1 145.3015 56.1665)" class="st33 st34 st35">6</text>
	<text transform="matrix(1 0 0 1 204.7215 56.1665)" class="st33 st34 st35">7</text>
	<text transform="matrix(1 0 0 1 26.4612 116.1665)" class="st33 st34 st35">r</text>
	<text transform="matrix(1 0 0 1 79.961 116.1665)" class="st33 st34 st35">t</text>
	<text transform="matrix(1 0 0 1 145.3016 116.1665)" class="st33 st34 st35">y</text>
	<text transform="matrix(1 0 0 1 204.7213 116.1665)" class="st33 st34 st35">u</text>
	<text transform="matrix(1 0 0 1 26.4618 176.667)" class="st33 st34 st35">f</text>
	<text transform="matrix(1 0 0 1 85.8819 176.667)" class="st33 st34 st35">g</text>
	<text transform="matrix(1 0 0 1 145.3016 176.667)" class="st33 st34 st35">h</text>
	<text transform="matrix(1 0 0 1 204.7217 176.667)" class="st33 st34 st35">j</text>
	<text transform="matrix(1 0 0 1 26.4618 233.667)" class="st33 st34 st35">v</text>
	<text transform="matrix(1 0 0 1 85.8816 233.667)" class="st33 st34 st35">b</text>
	<text transform="matrix(1 0 0 1 145.3017 233.667)" class="st33 st34 st35">n</text>
	<text transform="matrix(1 0 0 1 204.7216 233.667)" class="st33 st34 st35">m</text>
</g>
</svg>
