<svg xmlns="http://www.w3.org/2000/svg" viewBox="0 0 406 413.75"><defs><style>.cls-11{fill:#999;}.cls-12{fill:#ff7bac;}.cls-13{fill:#fab3a9;}.cls-14{fill:#56e39f;}.cls-15{fill:#43adf9;}.cls-16,.cls-8{fill:#333;}.cls-7{fill:#f2f2f2;}.cls-8{font-size:28px;font-family:Roboto-Black, Roboto;}</style></defs><title>keybored files</title><g id="uno"><rect class="cls-11" width="406" height="405.5"/><polygon class="cls-12" points="102 105.5 22 105.5 20 102.43 104 102.43 102 105.5"/><polygon class="cls-12" points="196 105.5 116 105.5 114 102.43 198 102.43 196 105.5"/><polygon class="cls-13" points="102 199.5 22 199.5 20 196.43 104 196.43 102 199.5"/><polygon class="cls-13" points="196 198.5 116 198.5 114 195.43 198 195.43 196 198.5"/><polygon class="cls-14" points="102 292.5 22 292.5 20 289.43 104 289.43 102 292.5"/><polygon class="cls-14" points="196 292.5 116 292.5 114 289.43 198 289.43 196 292.5"/><polygon class="cls-15" points="102 386.5 22 386.5 20 383.43 104 383.43 102 386.5"/><polygon class="cls-15" points="196 385.5 116 385.5 114 382.43 198 382.43 196 385.5"/><polygon class="cls-12" points="290 105.5 210 105.5 208 102.43 292 102.43 290 105.5"/><polygon class="cls-12" points="384 105.5 304 105.5 302 102.43 386 102.43 384 105.5"/><polygon class="cls-13" points="290 199.5 210 199.5 208 196.43 292 196.43 290 199.5"/><polygon class="cls-13" points="384 198.5 304 198.5 302 195.43 386 195.43 384 198.5"/><polygon class="cls-14" points="290 292.5 210 292.5 208 289.43 292 289.43 290 292.5"/><polygon class="cls-14" points="384 292.5 304 292.5 302 289.43 386 289.43 384 292.5"/><polygon class="cls-15" points="290 386.5 210 386.5 208 383.43 292 383.43 290 386.5"/><polygon class="cls-15" points="384 385.5 304 385.5 302 382.43 386 382.43 384 385.5"/><polygon class="cls-16" points="396.25 413.75 10.27 413.75 0 404.25 406 404.25 396.25 413.75"/></g><g id="_03" data-name="03"><rect class="cls-7" x="20" y="18.5" width="84" height="84"/></g><g id="_13" data-name="13"><rect class="cls-7" x="114" y="18.5" width="84" height="84"/></g><g id="_23" data-name="23"><rect class="cls-7" x="208" y="18.5" width="84" height="84"/></g><g id="_33" data-name="33"><rect class="cls-7" x="302" y="18.5" width="84" height="84"/></g><g id="_02" data-name="02"><rect class="cls-7" x="20" y="112.5" width="84" height="84"/></g><g id="_12" data-name="12"><rect class="cls-7" x="114" y="111.5" width="84" height="84"/></g><g id="_22" data-name="22"><rect class="cls-7" x="208" y="112.5" width="84" height="84"/></g><g id="_32" data-name="32"><rect class="cls-7" x="302" y="111.5" width="84" height="84"/></g><g id="_01" data-name="01"><rect class="cls-7" x="20" y="205.5" width="84" height="84"/></g><g id="_11" data-name="11"><rect class="cls-7" x="114" y="205.5" width="84" height="84"/></g><g id="_21" data-name="21"><rect class="cls-7" x="208" y="205.5" width="84" height="84"/></g><g id="_31" data-name="31"><rect class="cls-7" x="302" y="205.5" width="84" height="84"/></g><g id="_00" data-name="00"><rect class="cls-7" x="20" y="299.5" width="84" height="84"/></g><g id="_10" data-name="10"><rect class="cls-7" x="114" y="298.5" width="84" height="84"/></g><g id="_20" data-name="20"><rect class="cls-7" x="208" y="299.5" width="84" height="84"/></g><g id="_30" data-name="30"><rect class="cls-7" x="302" y="298.5" width="84" height="84"/></g><g id="M"><rect class="cls-15" x="302" y="298" width="84" height="84"/></g><g id="N"><rect class="cls-15" x="208" y="299" width="84" height="84"/></g><g id="B"><rect class="cls-15" x="114" y="298" width="84" height="84"/></g><g id="V"><rect class="cls-15" x="20" y="299" width="84" height="84"/></g><g id="J"><rect class="cls-14" x="302" y="205" width="84" height="84"/></g><g id="H"><rect class="cls-14" x="208" y="205" width="84" height="84"/></g><g id="G"><rect class="cls-14" x="114" y="205" width="84" height="84"/></g><g id="F"><rect class="cls-14" x="20" y="205" width="84" height="84"/></g><g id="U"><rect class="cls-13" x="302" y="111" width="84" height="84"/></g><g id="Y"><rect class="cls-13" x="208" y="112" width="84" height="84"/></g><g id="T"><rect class="cls-13" x="114" y="111" width="84" height="84"/></g><g id="R"><rect class="cls-13" x="20" y="112" width="84" height="84"/></g><g id="_7" data-name="7"><rect class="cls-12" x="302" y="18" width="84" height="84"/></g><g id="_6" data-name="6"><rect class="cls-12" x="208" y="18" width="84" height="84"/></g><g id="_5" data-name="5"><rect class="cls-12" x="114" y="18" width="84" height="84"/></g><g id="_4" data-name="4"><rect class="cls-12" x="20" y="18" width="84" height="84"/></g><g id="Layer_18" data-name="Layer 18"><text class="cls-8" transform="translate(25 42.35)">4</text><text class="cls-8" transform="translate(23.87 136.35)">R</text><text class="cls-8" transform="translate(25.06 229.35)">F</text><text class="cls-8" transform="translate(24.19 323.35)">V</text><text class="cls-8" transform="translate(119 42.35)">5</text><text class="cls-8" transform="translate(119.23 136.35)">T</text><text class="cls-8" transform="translate(117.84 229.35)">G</text><text class="cls-8" transform="translate(118.12 323.35)">B</text><text class="cls-8" transform="translate(213 42.35)">6</text><text class="cls-8" transform="translate(212.15 136.35)">Y</text><text class="cls-8" transform="translate(211.24 229.35)">H</text><text class="cls-8" transform="translate(211.24 323.35)">N</text><text class="cls-8" transform="translate(307 41.35)">7</text><text class="cls-8" transform="translate(305.42 135.35)">U</text><text class="cls-8" transform="translate(306.99 228.35)">J</text><text class="cls-8" transform="translate(302.94 322.35)">M</text></g></svg>