<svg width="500" height="257" viewBox="0 0 500 257" version="1.1" xmlns="http://www.w3.org/2000/svg" xmlns:xlink="http://www.w3.org/1999/xlink" xmlns:figma="http://www.figma.com/figma/ns">
<title>keybored LINES</title>
<desc>Created using Figma</desc>
<g id="Canvas" transform="translate(-1592 1109)" figma:type="canvas">
<g id="keybored LINES" figma:type="frame">
<g id="Vector" figma:type="vector">
<mask id="mask0_outline_ins">
<use xlink:href="#path0_fill" fill="white" transform="translate(1592 -1109)"/>
</mask>
<g mask="url(#mask0_outline_ins)">
<use xlink:href="#path1_stroke_2x" transform="translate(1592 -1109)"/>
</g>
</g>
<g id="Vector" figma:type="vector">
<mask id="mask1_outline_ins">
<use xlink:href="#path2_fill" fill="white" transform="translate(1604.64 -1096.99)"/>
</mask>
<g mask="url(#mask1_outline_ins)">
<use xlink:href="#path3_stroke_2x" transform="translate(1604.64 -1096.99)"/>
</g>
</g>
<g id="Vector" figma:type="vector">
<mask id="mask2_outline_ins">
<use xlink:href="#path4_fill" fill="white" transform="translate(1604.64 -1043.96)"/>
</mask>
<g mask="url(#mask2_outline_ins)">
<use xlink:href="#path5_stroke_2x" transform="translate(1604.64 -1043.96)"/>
</g>
</g>
<g id="Vector" figma:type="vector">
<mask id="mask3_outline_ins">
<use xlink:href="#path2_fill" fill="white" transform="translate(1664.06 -1096.99)"/>
</mask>
<g mask="url(#mask3_outline_ins)">
<use xlink:href="#path3_stroke_2x" transform="translate(1664.06 -1096.99)"/>
</g>
</g>
<g id="Vector" figma:type="vector">
<mask id="mask4_outline_ins">
<use xlink:href="#path4_fill" fill="white" transform="translate(1664.06 -1043.96)"/>
</mask>
<g mask="url(#mask4_outline_ins)">
<use xlink:href="#path5_stroke_2x" transform="translate(1664.06 -1043.96)"/>
</g>
</g>
<g id="Vector" figma:type="vector">
<mask id="mask5_outline_ins">
<use xlink:href="#path2_fill" fill="white" transform="translate(1604.64 -1037.6)"/>
</mask>
<g mask="url(#mask5_outline_ins)">
<use xlink:href="#path3_stroke_2x" transform="translate(1604.64 -1037.6)"/>
</g>
</g>
<g id="Vector" figma:type="vector">
<mask id="mask6_outline_ins">
<use xlink:href="#path6_fill" fill="white" transform="translate(1604.64 -984.564)"/>
</mask>
<g mask="url(#mask6_outline_ins)">
<use xlink:href="#path7_stroke_2x" transform="translate(1604.64 -984.564)"/>
</g>
</g>
<g id="Vector" figma:type="vector">
<mask id="mask7_outline_ins">
<use xlink:href="#path2_fill" fill="white" transform="translate(1664.06 -1038.23)"/>
</mask>
<g mask="url(#mask7_outline_ins)">
<use xlink:href="#path3_stroke_2x" transform="translate(1664.06 -1038.23)"/>
</g>
</g>
<g id="Vector" figma:type="vector">
<mask id="mask8_outline_ins">
<use xlink:href="#path6_fill" fill="white" transform="translate(1664.06 -985.196)"/>
</mask>
<g mask="url(#mask8_outline_ins)">
<use xlink:href="#path7_stroke_2x" transform="translate(1664.06 -985.196)"/>
</g>
</g>
<g id="Vector" figma:type="vector">
<mask id="mask9_outline_ins">
<use xlink:href="#path2_fill" fill="white" transform="translate(1604.64 -978.833)"/>
</mask>
<g mask="url(#mask9_outline_ins)">
<use xlink:href="#path3_stroke_2x" transform="translate(1604.64 -978.833)"/>
</g>
</g>
<g id="Vector" figma:type="vector">
<mask id="mask10_outline_ins">
<use xlink:href="#path6_fill" fill="white" transform="translate(1604.64 -925.799)"/>
</mask>
<g mask="url(#mask10_outline_ins)">
<use xlink:href="#path7_stroke_2x" transform="translate(1604.64 -925.799)"/>
</g>
</g>
<g id="Vector" figma:type="vector">
<mask id="mask11_outline_ins">
<use xlink:href="#path2_fill" fill="white" transform="translate(1664.06 -978.833)"/>
</mask>
<g mask="url(#mask11_outline_ins)">
<use xlink:href="#path3_stroke_2x" transform="translate(1664.06 -978.833)"/>
</g>
</g>
<g id="Vector" figma:type="vector">
<mask id="mask12_outline_ins">
<use xlink:href="#path6_fill" fill="white" transform="translate(1664.06 -925.799)"/>
</mask>
<g mask="url(#mask12_outline_ins)">
<use xlink:href="#path7_stroke_2x" transform="translate(1664.06 -925.799)"/>
</g>
</g>
<g id="Vector" figma:type="vector">
<mask id="mask13_outline_ins">
<use xlink:href="#path2_fill" fill="white" transform="translate(1604.64 -919.436)"/>
</mask>
<g mask="url(#mask13_outline_ins)">
<use xlink:href="#path3_stroke_2x" transform="translate(1604.64 -919.436)"/>
</g>
</g>
<g id="Vector" figma:type="vector">
<mask id="mask14_outline_ins">
<use xlink:href="#path6_fill" fill="white" transform="translate(1604.64 -866.403)"/>
</mask>
<g mask="url(#mask14_outline_ins)">
<use xlink:href="#path7_stroke_2x" transform="translate(1604.64 -866.403)"/>
</g>
</g>
<g id="Vector" figma:type="vector">
<mask id="mask15_outline_ins">
<use xlink:href="#path2_fill" fill="white" transform="translate(1664.06 -920.068)"/>
</mask>
<g mask="url(#mask15_outline_ins)">
<use xlink:href="#path3_stroke_2x" transform="translate(1664.06 -920.068)"/>
</g>
</g>
<g id="Vector" figma:type="vector">
<mask id="mask16_outline_ins">
<use xlink:href="#path6_fill" fill="white" transform="translate(1664.06 -867.035)"/>
</mask>
<g mask="url(#mask16_outline_ins)">
<use xlink:href="#path7_stroke_2x" transform="translate(1664.06 -867.035)"/>
</g>
</g>
<g id="Vector" figma:type="vector">
<mask id="mask17_outline_ins">
<use xlink:href="#path2_fill" fill="white" transform="translate(1723.48 -1096.99)"/>
</mask>
<g mask="url(#mask17_outline_ins)">
<use xlink:href="#path3_stroke_2x" transform="translate(1723.48 -1096.99)"/>
</g>
</g>
<g id="Vector" figma:type="vector">
<mask id="mask18_outline_ins">
<use xlink:href="#path4_fill" fill="white" transform="translate(1723.48 -1043.96)"/>
</mask>
<g mask="url(#mask18_outline_ins)">
<use xlink:href="#path5_stroke_2x" transform="translate(1723.48 -1043.96)"/>
</g>
</g>
<g id="Vector" figma:type="vector">
<mask id="mask19_outline_ins">
<use xlink:href="#path2_fill" fill="white" transform="translate(1782.9 -1096.99)"/>
</mask>
<g mask="url(#mask19_outline_ins)">
<use xlink:href="#path3_stroke_2x" transform="translate(1782.9 -1096.99)"/>
</g>
</g>
<g id="Vector" figma:type="vector">
<mask id="mask20_outline_ins">
<use xlink:href="#path4_fill" fill="white" transform="translate(1782.9 -1043.96)"/>
</mask>
<g mask="url(#mask20_outline_ins)">
<use xlink:href="#path5_stroke_2x" transform="translate(1782.9 -1043.96)"/>
</g>
</g>
<g id="Vector" figma:type="vector">
<mask id="mask21_outline_ins">
<use xlink:href="#path2_fill" fill="white" transform="translate(1723.48 -1037.6)"/>
</mask>
<g mask="url(#mask21_outline_ins)">
<use xlink:href="#path3_stroke_2x" transform="translate(1723.48 -1037.6)"/>
</g>
</g>
<g id="Vector" figma:type="vector">
<mask id="mask22_outline_ins">
<use xlink:href="#path6_fill" fill="white" transform="translate(1723.48 -984.564)"/>
</mask>
<g mask="url(#mask22_outline_ins)">
<use xlink:href="#path7_stroke_2x" transform="translate(1723.48 -984.564)"/>
</g>
</g>
<g id="Vector" figma:type="vector">
<mask id="mask23_outline_ins">
<use xlink:href="#path2_fill" fill="white" transform="translate(1782.9 -1038.23)"/>
</mask>
<g mask="url(#mask23_outline_ins)">
<use xlink:href="#path3_stroke_2x" transform="translate(1782.9 -1038.23)"/>
</g>
</g>
<g id="Vector" figma:type="vector">
<mask id="mask24_outline_ins">
<use xlink:href="#path6_fill" fill="white" transform="translate(1782.9 -985.196)"/>
</mask>
<g mask="url(#mask24_outline_ins)">
<use xlink:href="#path7_stroke_2x" transform="translate(1782.9 -985.196)"/>
</g>
</g>
<g id="Vector" figma:type="vector">
<mask id="mask25_outline_ins">
<use xlink:href="#path2_fill" fill="white" transform="translate(1723.48 -978.833)"/>
</mask>
<g mask="url(#mask25_outline_ins)">
<use xlink:href="#path3_stroke_2x" transform="translate(1723.48 -978.833)"/>
</g>
</g>
<g id="Vector" figma:type="vector">
<mask id="mask26_outline_ins">
<use xlink:href="#path6_fill" fill="white" transform="translate(1723.48 -925.799)"/>
</mask>
<g mask="url(#mask26_outline_ins)">
<use xlink:href="#path7_stroke_2x" transform="translate(1723.48 -925.799)"/>
</g>
</g>
<g id="Vector" figma:type="vector">
<mask id="mask27_outline_ins">
<use xlink:href="#path2_fill" fill="white" transform="translate(1782.9 -978.833)"/>
</mask>
<g mask="url(#mask27_outline_ins)">
<use xlink:href="#path3_stroke_2x" transform="translate(1782.9 -978.833)"/>
</g>
</g>
<g id="Vector" figma:type="vector">
<mask id="mask28_outline_ins">
<use xlink:href="#path6_fill" fill="white" transform="translate(1782.9 -925.799)"/>
</mask>
<g mask="url(#mask28_outline_ins)">
<use xlink:href="#path7_stroke_2x" transform="translate(1782.9 -925.799)"/>
</g>
</g>
<g id="Vector" figma:type="vector">
<mask id="mask29_outline_ins">
<use xlink:href="#path2_fill" fill="white" transform="translate(1723.48 -919.436)"/>
</mask>
<g mask="url(#mask29_outline_ins)">
<use xlink:href="#path3_stroke_2x" transform="translate(1723.48 -919.436)"/>
</g>
</g>
<g id="Vector" figma:type="vector">
<mask id="mask30_outline_ins">
<use xlink:href="#path6_fill" fill="white" transform="translate(1723.48 -866.403)"/>
</mask>
<g mask="url(#mask30_outline_ins)">
<use xlink:href="#path7_stroke_2x" transform="translate(1723.48 -866.403)"/>
</g>
</g>
<g id="Vector" figma:type="vector">
<mask id="mask31_outline_ins">
<use xlink:href="#path2_fill" fill="white" transform="translate(1782.9 -920.068)"/>
</mask>
<g mask="url(#mask31_outline_ins)">
<use xlink:href="#path3_stroke_2x" transform="translate(1782.9 -920.068)"/>
</g>
</g>
<g id="Vector" figma:type="vector">
<mask id="mask32_outline_ins">
<use xlink:href="#path6_fill" fill="white" transform="translate(1782.9 -867.035)"/>
</mask>
<g mask="url(#mask32_outline_ins)">
<use xlink:href="#path7_stroke_2x" transform="translate(1782.9 -867.035)"/>
</g>
</g>
<g id="Vector" figma:type="vector">
<mask id="mask33_outline_ins">
<use xlink:href="#path6_fill" fill="white" transform="translate(1782.9 -867.035)"/>
</mask>
<g mask="url(#mask33_outline_ins)">
<use xlink:href="#path7_stroke_2x" transform="translate(1782.9 -867.035)"/>
</g>
</g>
<g id="Vector" figma:type="vector">
<mask id="mask34_outline_ins">
<use xlink:href="#path8_fill" fill="white" transform="translate(1849 -1037.5)"/>
</mask>
<g mask="url(#mask34_outline_ins)">
<use xlink:href="#path9_stroke_2x" transform="translate(1849 -1037.5)"/>
</g>
</g>
<g id="Vector" figma:type="vector">
<mask id="mask35_outline_ins">
<use xlink:href="#path10_fill" fill="white" transform="matrix(6.12323e-17 1 -1 6.12323e-17 2079.94 -1037)"/>
</mask>
<g mask="url(#mask35_outline_ins)">
<use xlink:href="#path11_stroke_2x" transform="matrix(6.12323e-17 1 -1 6.12323e-17 2079.94 -1037)"/>
</g>
</g>
<g id="Vector" figma:type="vector">
<mask id="mask36_outline_ins">
<use xlink:href="#path10_fill" fill="white" transform="matrix(6.12323e-17 1 -1 6.12323e-17 1850.94 -1037)"/>
</mask>
<g mask="url(#mask36_outline_ins)">
<use xlink:href="#path11_stroke_2x" transform="matrix(6.12323e-17 1 -1 6.12323e-17 1850.94 -1037)"/>
</g>
</g>
<g id="Vector" figma:type="vector">
<mask id="mask37_outline_ins">
<use xlink:href="#path12_fill" fill="white" transform="translate(1848.64 -1037.6)"/>
</mask>
<g mask="url(#mask37_outline_ins)">
<use xlink:href="#path13_stroke_2x" transform="translate(1848.64 -1037.6)"/>
</g>
</g>
</g>
</g>
<defs>
<path id="path0_fill" d="M 500 0L 0 0L 0 257L 500 257L 500 0Z"/>
<path id="path1_stroke_2x" d="M 0 0L 0 -2L -2 -2L -2 0L 0 0ZM 500 0L 502 0L 502 -2L 500 -2L 500 0ZM 500 257L 500 259L 502 259L 502 257L 500 257ZM 0 257L -2 257L -2 259L 0 259L 0 257ZM 0 2L 500 2L 500 -2L 0 -2L 0 2ZM 498 0L 498 257L 502 257L 502 0L 498 0ZM 500 255L 0 255L 0 259L 500 259L 500 255ZM 2 257L 2 0L -2 0L -2 257L 2 257Z"/>
<path id="path2_fill" d="M 53.0973 0L 0 0L 0 53.0778L 53.0973 53.0778L 53.0973 0Z"/>
<path id="path3_stroke_2x" d="M 0 0L 0 -1L -1 -1L -1 0L 0 0ZM 53.0973 0L 54.0973 0L 54.0973 -1L 53.0973 -1L 53.0973 0ZM 53.0973 53.0778L 53.0973 54.0778L 54.0973 54.0778L 54.0973 53.0778L 53.0973 53.0778ZM 0 53.0778L -1 53.0778L -1 54.0778L 0 54.0778L 0 53.0778ZM 0 1L 53.0973 1L 53.0973 -1L 0 -1L 0 1ZM 52.0973 0L 52.0973 53.0778L 54.0973 53.0778L 54.0973 0L 52.0973 0ZM 53.0973 52.0778L 0 52.0778L 0 54.0778L 53.0973 54.0778L 53.0973 52.0778ZM 1 53.0778L 1 0L -1 0L -1 53.0778L 1 53.0778Z"/>
<path id="path4_fill" d="M 51.8331 1.93987L 1.26422 1.93987L 0 1.92834e-07L 53.0973 1.92834e-07L 51.8331 1.93987Z"/>
<path id="path5_stroke_2x" d="M 51.8331 1.93987L 51.8331 2.93987L 52.375 2.93987L 52.6709 2.48586L 51.8331 1.93987ZM 1.26422 1.93987L 0.426432 2.48586L 0.722312 2.93987L 1.26422 2.93987L 1.26422 1.93987ZM 0 1.92834e-07L 0 -1L -1.84532 -1L -0.83779 0.545993L 0 1.92834e-07ZM 53.0973 1.92834e-07L 53.9351 0.545993L 54.9427 -1L 53.0973 -1L 53.0973 1.92834e-07ZM 51.8331 0.939867L 1.26422 0.939867L 1.26422 2.93987L 51.8331 2.93987L 51.8331 0.939867ZM 2.10201 1.39387L 0.83779 -0.545992L -0.83779 0.545993L 0.426432 2.48586L 2.10201 1.39387ZM 0 1L 53.0973 1L 53.0973 -1L 0 -1L 0 1ZM 52.2596 -0.545992L 50.9953 1.39387L 52.6709 2.48586L 53.9351 0.545993L 52.2596 -0.545992Z"/>
<path id="path6_fill" d="M 51.8331 1.93987L 1.26422 1.93987L 0 -4.62802e-06L 53.0973 -4.62802e-06L 51.8331 1.93987Z"/>
<path id="path7_stroke_2x" d="M 51.8331 1.93987L 51.8331 2.93987L 52.375 2.93987L 52.6709 2.48586L 51.8331 1.93987ZM 1.26422 1.93987L 0.426432 2.48586L 0.722311 2.93987L 1.26422 2.93987L 1.26422 1.93987ZM 0 -4.62802e-06L 0 -1L -1.84532 -1L -0.837791 0.545987L 0 -4.62802e-06ZM 53.0973 -4.62802e-06L 53.9351 0.545987L 54.9427 -1L 53.0973 -1L 53.0973 -4.62802e-06ZM 51.8331 0.939867L 1.26422 0.939867L 1.26422 2.93987L 51.8331 2.93987L 51.8331 0.939867ZM 2.10201 1.39388L 0.837791 -0.545996L -0.837791 0.545987L 0.426432 2.48586L 2.10201 1.39388ZM 0 0.999995L 53.0973 0.999995L 53.0973 -1L 0 -1L 0 0.999995ZM 52.2596 -0.545996L 50.9953 1.39388L 52.6709 2.48586L 53.9351 0.545987L 52.2596 -0.545996Z"/>
<path id="path8_fill" d="M 230 2L 0 2L 0 0.5L 230 0L 230 2Z"/>
<path id="path9_stroke_2x" d="M 230 2L 230 3L 231 3L 231 2L 230 2ZM 0 2L -1 2L -1 3L 0 3L 0 2ZM 0 0.5L -0.00217391 -0.499998L -1 -0.497828L -1 0.5L 0 0.5ZM 230 0L 231 0L 231 -1.00218L 229.998 -0.999998L 230 0ZM 230 1L 0 1L 0 3L 230 3L 230 1ZM 1 2L 1 0.5L -1 0.5L -1 2L 1 2ZM 0.00217391 1.5L 230.002 0.999998L 229.998 -0.999998L -0.00217391 -0.499998L 0.00217391 1.5ZM 229 0L 229 2L 231 2L 231 0L 229 0Z"/>
<path id="path10_fill" d="M 111 1.93994L 0 1.93994L 0 0L 111 0L 111 1.93994Z"/>
<path id="path11_stroke_2x" d="M 111 1.93994L 111 2.93994L 112 2.93994L 112 1.93994L 111 1.93994ZM 0 1.93994L -1 1.93994L -1 2.93994L 0 2.93994L 0 1.93994ZM 0 0L 0 -1L -1 -1L -1 0L 0 0ZM 111 0L 112 0L 112 -1L 111 -1L 111 0ZM 111 0.939941L 0 0.939941L 0 2.93994L 111 2.93994L 111 0.939941ZM 1 1.93994L 1 0L -1 0L -1 1.93994L 1 1.93994ZM 0 1L 111 1L 111 -1L 0 -1L 0 1ZM 110 0L 110 1.93994L 112 1.93994L 112 0L 110 0Z"/>
<path id="path12_fill" d="M 231.353 0L 0 0L 0 111.843L 231.353 111.843L 231.353 0Z"/>
<path id="path13_stroke_2x" d="M 0 0L 0 -1L -1 -1L -1 0L 0 0ZM 231.353 0L 232.353 0L 232.353 -1L 231.353 -1L 231.353 0ZM 231.353 111.843L 231.353 112.843L 232.353 112.843L 232.353 111.843L 231.353 111.843ZM 0 111.843L -1 111.843L -1 112.843L 0 112.843L 0 111.843ZM 0 1L 231.353 1L 231.353 -1L 0 -1L 0 1ZM 230.353 0L 230.353 111.843L 232.353 111.843L 232.353 0L 230.353 0ZM 231.353 110.843L 0 110.843L 0 112.843L 231.353 112.843L 231.353 110.843ZM 1 111.843L 1 0L -1 0L -1 111.843L 1 111.843Z"/>
</defs>
</svg>
