<svg xmlns="http://www.w3.org/2000/svg" viewBox="0 0 791 425"><defs><style>.cls-1{fill:#ccc;}.cls-2{fill:#f2f2f2;}.cls-3{fill:#ff7bac;}.cls-4{fill:#666;}.cls-5{fill:#4d4d4d;}.cls-6{font-size:64px;fill:#e6e6e6;font-family:Digital-7Mono, Digital-7 Mono;}.cls-7{font-size:40px;font-family:MyriadPro-Regular, Myriad Pro;}</style></defs><title>keybored</title><g id="Layer_1" data-name="Layer 1"><rect class="cls-1" width="406" height="406"/><rect class="cls-2" x="20" y="19" width="84" height="84"/><polygon class="cls-3" points="102 106 22 106 20 102.93 104 102.93 102 106"/><rect class="cls-2" x="114" y="19" width="84" height="84"/><polygon class="cls-3" points="196 106 116 106 114 102.93 198 102.93 196 106"/><rect class="cls-2" x="20" y="113" width="84" height="84"/><polygon class="cls-3" points="102 200 22 200 20 196.93 104 196.93 102 200"/><rect class="cls-2" x="114" y="112" width="84" height="84"/><polygon class="cls-3" points="196 199 116 199 114 195.93 198 195.93 196 199"/><rect class="cls-2" x="20" y="206" width="84" height="84"/><polygon class="cls-3" points="102 293 22 293 20 289.93 104 289.93 102 293"/><rect class="cls-2" x="114" y="206" width="84" height="84"/><polygon class="cls-3" points="196 293 116 293 114 289.93 198 289.93 196 293"/><rect class="cls-2" x="20" y="300" width="84" height="84"/><polygon class="cls-3" points="102 387 22 387 20 383.93 104 383.93 102 387"/><rect class="cls-2" x="114" y="299" width="84" height="84"/><polygon class="cls-3" points="196 386 116 386 114 382.93 198 382.93 196 386"/><rect class="cls-2" x="208" y="19" width="84" height="84"/><polygon class="cls-3" points="290 106 210 106 208 102.93 292 102.93 290 106"/><rect class="cls-2" x="302" y="19" width="84" height="84"/><polygon class="cls-3" points="384 106 304 106 302 102.93 386 102.93 384 106"/><rect class="cls-2" x="208" y="113" width="84" height="84"/><polygon class="cls-3" points="290 200 210 200 208 196.93 292 196.93 290 200"/><rect class="cls-2" x="302" y="112" width="84" height="84"/><polygon class="cls-3" points="384 199 304 199 302 195.93 386 195.93 384 199"/><rect class="cls-2" x="208" y="206" width="84" height="84"/><polygon class="cls-3" points="290 293 210 293 208 289.93 292 289.93 290 293"/><rect class="cls-2" x="302" y="206" width="84" height="84"/><polygon class="cls-3" points="384 293 304 293 302 289.93 386 289.93 384 293"/><rect class="cls-2" x="208" y="300" width="84" height="84"/><polygon class="cls-3" points="290 387 210 387 208 383.93 292 383.93 290 387"/><rect class="cls-2" x="302" y="299" width="84" height="84"/><polygon class="cls-3" points="384 386 304 386 302 382.93 386 382.93 384 386"/><rect class="cls-1" x="405" width="386" height="406"/><rect class="cls-4" x="406" y="113" width="366" height="177"/><rect class="cls-5" x="406" y="299" width="84" height="2.86"/><rect class="cls-5" x="500" y="299" width="84" height="2.86"/><rect class="cls-5" x="594" y="299" width="84" height="2.86"/><rect class="cls-5" x="688" y="299" width="84" height="2.86"/><rect class="cls-5" x="406" y="303.29" width="84" height="2.86"/><rect class="cls-5" x="500" y="303.29" width="84" height="2.86"/><rect class="cls-5" x="594" y="303.29" width="84" height="2.86"/><rect class="cls-5" x="688" y="303.29" width="84" height="2.86"/><rect class="cls-5" x="406" y="307.57" width="84" height="2.86"/><rect class="cls-5" x="500" y="307.57" width="84" height="2.86"/><rect class="cls-5" x="594" y="307.57" width="84" height="2.86"/><rect class="cls-5" x="688" y="307.57" width="84" height="2.86"/><rect class="cls-5" x="406" y="311.86" width="84" height="2.86"/><rect class="cls-5" x="500" y="311.86" width="84" height="2.86"/><rect class="cls-5" x="594" y="311.86" width="84" height="2.86"/><rect class="cls-5" x="688" y="311.86" width="84" height="2.86"/><rect class="cls-5" x="406" y="316.14" width="84" height="2.86"/><rect class="cls-5" x="500" y="316.14" width="84" height="2.86"/><rect class="cls-5" x="594" y="316.14" width="84" height="2.86"/><rect class="cls-5" x="688" y="316.14" width="84" height="2.86"/><polygon class="cls-5" points="772 425 20 425 0 406 791 406 772 425"/><rect class="cls-5" x="406" y="83" width="84" height="2.86"/><rect class="cls-5" x="500" y="83" width="84" height="2.86"/><rect class="cls-5" x="594" y="83" width="84" height="2.86"/><rect class="cls-5" x="688" y="83" width="84" height="2.86"/><rect class="cls-5" x="406" y="87.29" width="84" height="2.86"/><rect class="cls-5" x="500" y="87.29" width="84" height="2.86"/><rect class="cls-5" x="594" y="87.29" width="84" height="2.86"/><rect class="cls-5" x="688" y="87.29" width="84" height="2.86"/><rect class="cls-5" x="406" y="91.57" width="84" height="2.86"/><rect class="cls-5" x="500" y="91.57" width="84" height="2.86"/><rect class="cls-5" x="594" y="91.57" width="84" height="2.86"/><rect class="cls-5" x="688" y="91.57" width="84" height="2.86"/><rect class="cls-5" x="406" y="95.86" width="84" height="2.86"/><rect class="cls-5" x="500" y="95.86" width="84" height="2.86"/><rect class="cls-5" x="594" y="95.86" width="84" height="2.86"/><rect class="cls-5" x="688" y="95.86" width="84" height="2.86"/><rect class="cls-5" x="406" y="100.14" width="84" height="2.86"/><rect class="cls-5" x="500" y="100.14" width="84" height="2.86"/><rect class="cls-5" x="594" y="100.14" width="84" height="2.86"/><rect class="cls-5" x="688" y="100.14" width="84" height="2.86"/><text class="cls-6" transform="translate(472.64 224.19)">keybored</text></g><g id="M"><rect class="cls-3" x="302" y="298.9" width="84" height="84"/></g><g id="N"><rect class="cls-3" x="208" y="299.9" width="84" height="84"/></g><g id="B"><rect class="cls-3" x="114" y="298.9" width="84" height="84"/></g><g id="V"><rect class="cls-3" x="20" y="299.9" width="84" height="84"/></g><g id="J"><rect class="cls-3" x="302" y="205.9" width="84" height="84"/></g><g id="H"><rect class="cls-3" x="208" y="205.9" width="84" height="84"/></g><g id="G"><rect class="cls-3" x="114" y="205.9" width="84" height="84"/></g><g id="F"><rect class="cls-3" x="20" y="205.9" width="84" height="84"/></g><g id="U"><rect class="cls-3" x="302" y="111.9" width="84" height="84"/></g><g id="Y"><rect class="cls-3" x="208" y="112.9" width="84" height="84"/></g><g id="T"><rect class="cls-3" x="114" y="111.9" width="84" height="84"/></g><g id="R"><rect class="cls-3" x="20" y="112.9" width="84" height="84"/></g><g id="_7" data-name="7"><rect class="cls-3" x="302" y="18.9" width="84" height="84"/></g><g id="_6" data-name="6"><rect class="cls-3" x="208" y="18.9" width="84" height="84"/></g><g id="_5" data-name="5"><rect class="cls-3" x="114" y="18.9" width="84" height="84"/></g><g id="_4" data-name="4"><rect class="cls-3" x="20" y="18.9" width="84" height="84"/></g><g id="Text"><text class="cls-7" transform="translate(55.6 72.6)">4</text><text class="cls-7" transform="translate(146.6 72.6)">5</text><text class="cls-7" transform="translate(249.6 72.6)">6</text><text class="cls-7" transform="translate(249.6 165.6)">Y</text><text class="cls-7" transform="translate(343.6 165.6)">U</text><text class="cls-7" transform="translate(343.6 72.6)">7</text><text class="cls-7" transform="translate(155.6 165.6)">T</text><text class="cls-7" transform="translate(61.6 165.6)">R</text><text class="cls-7" transform="translate(61.6 255.6)">F</text><text class="cls-7" transform="translate(155.6 255.6)">G</text><text class="cls-7" transform="translate(249.6 254.6)">H</text><text class="cls-7" transform="translate(343.6 255.6)">H</text><text class="cls-7" transform="translate(61.6 349.6)">V</text><text class="cls-7" transform="translate(155.6 349.6)">B</text><text class="cls-7" transform="translate(249.6 349.6)">N</text><text class="cls-7" transform="translate(343.6 341.6)">M</text></g></svg>