<svg xmlns="http://www.w3.org/2000/svg" viewBox="0 0 1037.23 441.42"><defs><style>.cls-1{fill:#4d4d4d;}.cls-2{fill:#f2f2f2;}.cls-3{fill:#ff7bac;}.cls-4{fill:#fab3a9;}.cls-5{fill:#56e39f;}.cls-6{fill:#43adf9;}</style></defs><title>loading_board</title><g id="Layer_2" data-name="Layer 2"><rect class="cls-1" width="1037.23" height="441.42"/></g><g id="Layer_1" data-name="Layer 1"><rect class="cls-2" x="47.82" y="89.8" width="46.28" height="46.28"/><rect class="cls-2" x="46.17" y="342.37" width="65.16" height="53.66"/><rect class="cls-2" x="129.88" y="341.33" width="65.16" height="53.66"/><rect class="cls-2" x="653.91" y="341.33" width="45.81" height="53.66"/><rect class="cls-2" x="718.28" y="341.33" width="67.2" height="53.66"/><rect class="cls-2" x="805.69" y="371.23" width="48.87" height="25.03"/><rect class="cls-2" x="942.47" y="369.2" width="48.87" height="29.09"/><rect class="cls-2" x="277.03" y="341.33" width="357.38" height="53.66"/><rect class="cls-2" x="47.82" y="281.54" width="126.5" height="46.28"/><rect class="cls-2" x="194.99" y="281.54" width="46.28" height="46.28"/><rect class="cls-2" x="261.94" y="281.54" width="46.28" height="46.28"/><rect class="cls-2" x="328.89" y="281.54" width="46.28" height="46.28"/><rect class="cls-2" x="663.64" y="281.54" width="46.28" height="46.28"/><rect class="cls-2" x="730.59" y="281.54" width="46.28" height="46.28"/><rect class="cls-2" x="797.54" y="281.54" width="46.28" height="46.28"/><rect class="cls-2" x="864.49" y="281.54" width="125.22" height="46.28"/><rect class="cls-2" x="47.82" y="220.71" width="79.76" height="46.28"/><rect class="cls-2" x="153.36" y="220.71" width="46.28" height="46.28"/><rect class="cls-2" x="225.42" y="220.71" width="46.28" height="46.28"/><rect class="cls-2" x="297.48" y="220.71" width="46.28" height="46.28"/><rect class="cls-2" x="657.79" y="220.71" width="46.28" height="46.28"/><rect class="cls-2" x="729.85" y="220.71" width="46.28" height="46.28"/><rect class="cls-2" x="801.91" y="220.71" width="46.28" height="46.28"/><rect class="cls-2" x="872.68" y="220.71" width="117.37" height="46.28"/><rect class="cls-2" x="47.82" y="154.6" width="71.8" height="46.28"/><rect class="cls-2" x="139.43" y="155.26" width="46.28" height="46.28"/><rect class="cls-2" x="205.53" y="154.6" width="46.28" height="46.28"/><rect class="cls-2" x="271.63" y="154.6" width="46.28" height="46.28"/><rect class="cls-2" x="602.12" y="154.6" width="46.28" height="46.28"/><rect class="cls-2" x="668.22" y="154.6" width="46.28" height="46.28"/><rect class="cls-2" x="734.32" y="154.6" width="46.28" height="46.28"/><rect class="cls-2" x="800.42" y="154.6" width="46.28" height="46.28"/><rect class="cls-2" x="866.52" y="154.6" width="46.28" height="46.28"/><rect class="cls-2" x="932.62" y="154.6" width="57.43" height="46.28"/><rect class="cls-2" x="116.69" y="89.8" width="46.28" height="46.28"/><rect class="cls-2" x="185.19" y="89.8" width="46.28" height="46.28"/><rect class="cls-2" x="253.93" y="89.8" width="46.28" height="46.28"/><rect class="cls-2" x="597.49" y="89.8" width="46.28" height="46.28"/><rect class="cls-2" x="665.83" y="89.8" width="46.28" height="46.28"/><rect class="cls-2" x="734.7" y="89.8" width="46.28" height="46.28"/><rect class="cls-2" x="804.17" y="89.8" width="46.28" height="46.28"/><rect class="cls-2" x="873.97" y="89.8" width="46.28" height="46.28"/><rect class="cls-2" x="943.77" y="89.8" width="46.28" height="46.28"/><rect class="cls-2" x="48.4" y="42.86" width="50.91" height="25.12"/><rect class="cls-2" x="123.41" y="42.86" width="50.91" height="25.12"/><rect class="cls-2" x="198.12" y="42.86" width="50.91" height="25.12"/><rect class="cls-2" x="272.84" y="42.86" width="50.91" height="25.12"/><rect class="cls-2" x="347.96" y="42.86" width="50.91" height="25.12"/><rect class="cls-2" x="422.92" y="42.86" width="50.91" height="25.12"/><rect class="cls-2" x="495.65" y="42.86" width="50.91" height="25.12"/><rect class="cls-2" x="570.13" y="42.86" width="50.91" height="25.12"/><rect class="cls-2" x="643.07" y="42.86" width="50.9" height="25.12"/><rect class="cls-2" x="715.57" y="42.86" width="50.91" height="25.12"/><rect class="cls-2" x="789.84" y="42.86" width="50.91" height="25.12"/><rect class="cls-2" x="864.49" y="42.86" width="50.91" height="25.12"/><rect class="cls-2" x="939.13" y="42.86" width="50.91" height="25.12"/><rect class="cls-2" x="211.71" y="341.33" width="45.81" height="53.66"/><rect class="cls-2" x="874.08" y="371.23" width="48.87" height="25.03"/><rect class="cls-2" x="874.08" y="341.33" width="48.87" height="25.03"/></g><g id="Layer_3" data-name="Layer 3"><rect class="cls-3" x="323.19" y="89.8" width="46.28" height="46.28"/></g><g id="Layer_4" data-name="Layer 4"><rect class="cls-3" x="392.06" y="89.8" width="46.28" height="46.28"/></g><g id="Layer_5" data-name="Layer 5"><rect class="cls-3" x="460.1" y="89.8" width="46.28" height="46.28"/></g><g id="Layer_6" data-name="Layer 6"><rect class="cls-3" x="528.42" y="89.8" width="46.28" height="46.28"/></g><g id="Layer_7" data-name="Layer 7"><rect class="cls-4" x="337.73" y="154.6" width="46.28" height="46.28"/></g><g id="Layer_8" data-name="Layer 8"><rect class="cls-4" x="403.83" y="154.6" width="46.28" height="46.28"/></g><g id="Layer_9" data-name="Layer 9"><rect class="cls-4" x="469.93" y="154.6" width="46.28" height="46.28"/></g><g id="Layer_10" data-name="Layer 10"><rect class="cls-4" x="536.03" y="154.6" width="46.28" height="46.28"/></g><g id="Layer_11" data-name="Layer 11"><rect class="cls-5" x="369.54" y="220.71" width="46.28" height="46.28"/></g><g id="Layer_12" data-name="Layer 12"><rect class="cls-5" x="441.6" y="220.71" width="46.28" height="46.28"/></g><g id="Layer_13" data-name="Layer 13"><rect class="cls-5" x="513.66" y="220.71" width="46.28" height="46.28"/></g><g id="Layer_14" data-name="Layer 14"><rect class="cls-5" x="585.73" y="220.71" width="46.28" height="46.28"/></g><g id="Layer_15" data-name="Layer 15"><rect class="cls-6" x="395.84" y="281.54" width="46.28" height="46.28"/></g><g id="Layer_16" data-name="Layer 16"><rect class="cls-6" x="462.79" y="281.54" width="46.28" height="46.28"/></g><g id="Layer_17" data-name="Layer 17"><rect class="cls-6" x="529.74" y="281.54" width="46.28" height="46.28"/></g><g id="Layer_18" data-name="Layer 18"><rect class="cls-6" x="596.69" y="281.54" width="46.28" height="46.28"/></g></svg>