<svg xmlns="http://www.w3.org/2000/svg" viewBox="0 0 1000 662.41"><defs><style>.cls-1{fill:#4d4d4d;}.cls-2{fill:#f2f2f2;}.cls-3{font-size:31px;font-family:MyriadPro-Regular, Myriad Pro;}.cls-4{fill:#ff7bac;}.cls-5{fill:#fab3a9;}.cls-6{fill:#56e39f;}.cls-7{fill:#43adf9;}</style></defs><title>loading_keys</title><g id="Layer_2" data-name="Layer 2"><rect class="cls-1" width="1000" height="441.42"/></g><g id="Layer_1" data-name="Layer 1"><rect class="cls-2" x="29.2" y="89.8" width="46.28" height="46.28"/><rect class="cls-2" x="27.55" y="342.37" width="65.16" height="53.66"/><rect class="cls-2" x="111.27" y="341.33" width="65.16" height="53.66"/><rect class="cls-2" x="635.29" y="341.33" width="45.81" height="53.66"/><rect class="cls-2" x="699.66" y="341.33" width="67.2" height="53.66"/><rect class="cls-2" x="787.07" y="371.23" width="48.87" height="25.03"/><rect class="cls-2" x="923.85" y="369.2" width="48.87" height="29.09"/><rect class="cls-2" x="258.41" y="341.33" width="357.38" height="53.66"/><rect class="cls-2" x="29.2" y="281.54" width="126.5" height="46.28"/><rect class="cls-2" x="176.37" y="281.54" width="46.28" height="46.28"/><rect class="cls-2" x="243.32" y="281.54" width="46.28" height="46.28"/><rect class="cls-2" x="310.27" y="281.54" width="46.28" height="46.28"/><rect class="cls-2" x="645.02" y="281.54" width="46.28" height="46.28"/><rect class="cls-2" x="711.97" y="281.54" width="46.28" height="46.28"/><rect class="cls-2" x="778.92" y="281.54" width="46.28" height="46.28"/><rect class="cls-2" x="845.87" y="281.54" width="125.22" height="46.28"/><rect class="cls-2" x="29.2" y="220.71" width="79.76" height="46.28"/><rect class="cls-2" x="134.74" y="220.71" width="46.28" height="46.28"/><rect class="cls-2" x="206.8" y="220.71" width="46.28" height="46.28"/><rect class="cls-2" x="278.86" y="220.71" width="46.28" height="46.28"/><rect class="cls-2" x="639.17" y="220.71" width="46.28" height="46.28"/><rect class="cls-2" x="711.23" y="220.71" width="46.28" height="46.28"/><rect class="cls-2" x="783.29" y="220.71" width="46.28" height="46.28"/><rect class="cls-2" x="854.06" y="220.71" width="117.37" height="46.28"/><rect class="cls-2" x="29.2" y="154.6" width="71.8" height="46.28"/><rect class="cls-2" x="120.82" y="155.26" width="46.28" height="46.28"/><rect class="cls-2" x="186.92" y="154.6" width="46.28" height="46.28"/><rect class="cls-2" x="253.01" y="154.6" width="46.28" height="46.28"/><rect class="cls-2" x="583.51" y="154.6" width="46.28" height="46.28"/><rect class="cls-2" x="649.61" y="154.6" width="46.28" height="46.28"/><rect class="cls-2" x="715.7" y="154.6" width="46.28" height="46.28"/><rect class="cls-2" x="781.8" y="154.6" width="46.28" height="46.28"/><rect class="cls-2" x="847.9" y="154.6" width="46.28" height="46.28"/><rect class="cls-2" x="914" y="154.6" width="57.43" height="46.28"/><rect class="cls-2" x="98.07" y="89.8" width="46.28" height="46.28"/><rect class="cls-2" x="166.57" y="89.8" width="46.28" height="46.28"/><rect class="cls-2" x="235.31" y="89.8" width="46.28" height="46.28"/><rect class="cls-2" x="578.87" y="89.8" width="46.28" height="46.28"/><rect class="cls-2" x="647.22" y="89.8" width="46.28" height="46.28"/><rect class="cls-2" x="716.09" y="89.8" width="46.28" height="46.28"/><rect class="cls-2" x="785.56" y="89.8" width="46.28" height="46.28"/><rect class="cls-2" x="855.35" y="89.8" width="46.28" height="46.28"/><rect class="cls-2" x="925.15" y="89.8" width="46.28" height="46.28"/><rect class="cls-2" x="29.78" y="42.86" width="50.91" height="25.12"/><rect class="cls-2" x="104.8" y="42.86" width="50.91" height="25.12"/><rect class="cls-2" x="179.51" y="42.86" width="50.91" height="25.12"/><rect class="cls-2" x="254.22" y="42.86" width="50.91" height="25.12"/><rect class="cls-2" x="329.34" y="42.86" width="50.91" height="25.12"/><rect class="cls-2" x="404.3" y="42.86" width="50.91" height="25.12"/><rect class="cls-2" x="477.03" y="42.86" width="50.91" height="25.12"/><rect class="cls-2" x="551.51" y="42.86" width="50.91" height="25.12"/><rect class="cls-2" x="624.45" y="42.86" width="50.9" height="25.12"/><rect class="cls-2" x="696.95" y="42.86" width="50.91" height="25.12"/><rect class="cls-2" x="771.22" y="42.86" width="50.91" height="25.12"/><rect class="cls-2" x="845.87" y="42.86" width="50.91" height="25.12"/><rect class="cls-2" x="920.52" y="42.86" width="50.91" height="25.12"/><rect class="cls-2" x="193.09" y="341.33" width="45.81" height="53.66"/><text x="-100" y="-446.34"></text><text class="cls-3" transform="translate(493 654.66)"> </text><rect class="cls-2" x="855.46" y="371.23" width="48.87" height="25.03"/><rect class="cls-2" x="855.46" y="341.33" width="48.87" height="25.03"/></g><g id="Layer_3" data-name="Layer 3"><rect class="cls-4" x="304.57" y="89.8" width="46.28" height="46.28"/></g><g id="Layer_4" data-name="Layer 4"><rect class="cls-4" x="373.44" y="89.8" width="46.28" height="46.28"/></g><g id="Layer_5" data-name="Layer 5"><rect class="cls-4" x="441.48" y="89.8" width="46.28" height="46.28"/></g><g id="Layer_6" data-name="Layer 6"><rect class="cls-4" x="509.81" y="89.8" width="46.28" height="46.28"/></g><g id="Layer_7" data-name="Layer 7"><rect class="cls-5" x="319.11" y="154.6" width="46.28" height="46.28"/></g><g id="Layer_8" data-name="Layer 8"><rect class="cls-5" x="385.21" y="154.6" width="46.28" height="46.28"/></g><g id="Layer_9" data-name="Layer 9"><rect class="cls-5" x="451.31" y="154.6" width="46.28" height="46.28"/></g><g id="Layer_10" data-name="Layer 10"><rect class="cls-5" x="517.41" y="154.6" width="46.28" height="46.28"/></g><g id="Layer_11" data-name="Layer 11"><rect class="cls-6" x="350.92" y="220.71" width="46.28" height="46.28"/></g><g id="Layer_12" data-name="Layer 12"><rect class="cls-6" x="422.99" y="220.71" width="46.28" height="46.28"/></g><g id="Layer_13" data-name="Layer 13"><rect class="cls-6" x="495.05" y="220.71" width="46.28" height="46.28"/></g><g id="Layer_14" data-name="Layer 14"><rect class="cls-6" x="567.11" y="220.71" width="46.28" height="46.28"/></g><g id="Layer_15" data-name="Layer 15"><rect class="cls-7" x="377.22" y="281.54" width="46.28" height="46.28"/></g><g id="Layer_16" data-name="Layer 16"><rect class="cls-7" x="444.17" y="281.54" width="46.28" height="46.28"/></g><g id="Layer_17" data-name="Layer 17"><rect class="cls-7" x="511.12" y="281.54" width="46.28" height="46.28"/></g><g id="Layer_18" data-name="Layer 18"><rect class="cls-7" x="578.07" y="281.54" width="46.28" height="46.28"/></g></svg>