<?xml version="1.0" encoding="utf-8"?>
<!-- Generator: Adobe Illustrator 21.0.0, SVG Export Plug-In . SVG Version: 6.00 Build 0)  -->
<svg version="1.1" xmlns="http://www.w3.org/2000/svg" xmlns:xlink="http://www.w3.org/1999/xlink" x="0px" y="0px"
	 viewBox="0 0 500 270" style="enable-background:new 0 0 500 270;" xml:space="preserve">
<style type="text/css">
	.st0{filter:url(#Adobe_OpacityMaskFilter);}
	.st1{fill:#FFFFFF;}
	.st2{mask:url(#mask0_outline_ins);}
	.st3{fill:#333333;}
	.st4{filter:url(#Adobe_OpacityMaskFilter_1_);}
	.st5{mask:url(#mask1_outline_ins);}
	.st6{filter:url(#Adobe_OpacityMaskFilter_2_);}
	.st7{mask:url(#mask2_outline_ins);}
	.st8{filter:url(#Adobe_OpacityMaskFilter_3_);}
	.st9{mask:url(#mask3_outline_ins);}
	.st10{filter:url(#Adobe_OpacityMaskFilter_4_);}
	.st11{mask:url(#mask4_outline_ins);}
	.st12{filter:url(#Adobe_OpacityMaskFilter_5_);}
	.st13{mask:url(#mask5_outline_ins);}
	.st14{filter:url(#Adobe_OpacityMaskFilter_6_);}
	.st15{mask:url(#mask6_outline_ins);}
	.st16{filter:url(#Adobe_OpacityMaskFilter_7_);}
	.st17{mask:url(#mask7_outline_ins);}
	.st18{filter:url(#Adobe_OpacityMaskFilter_8_);}
	.st19{mask:url(#mask8_outline_ins);}
	.st20{filter:url(#Adobe_OpacityMaskFilter_9_);}
	.st21{mask:url(#mask9_outline_ins);}
	.st22{filter:url(#Adobe_OpacityMaskFilter_10_);}
	.st23{mask:url(#mask10_outline_ins);}
	.st24{filter:url(#Adobe_OpacityMaskFilter_11_);}
	.st25{mask:url(#mask11_outline_ins);}
	.st26{filter:url(#Adobe_OpacityMaskFilter_12_);}
	.st27{mask:url(#mask12_outline_ins);}
	.st28{filter:url(#Adobe_OpacityMaskFilter_13_);}
	.st29{mask:url(#mask13_outline_ins);}
	.st30{filter:url(#Adobe_OpacityMaskFilter_14_);}
	.st31{mask:url(#mask14_outline_ins);}
	.st32{filter:url(#Adobe_OpacityMaskFilter_15_);}
	.st33{mask:url(#mask15_outline_ins);}
	.st34{filter:url(#Adobe_OpacityMaskFilter_16_);}
	.st35{mask:url(#mask16_outline_ins);}
	.st36{filter:url(#Adobe_OpacityMaskFilter_17_);}
	.st37{mask:url(#mask17_outline_ins);}
	.st38{filter:url(#Adobe_OpacityMaskFilter_18_);}
	.st39{mask:url(#mask18_outline_ins);}
	.st40{filter:url(#Adobe_OpacityMaskFilter_19_);}
	.st41{mask:url(#mask19_outline_ins);}
	.st42{filter:url(#Adobe_OpacityMaskFilter_20_);}
	.st43{mask:url(#mask20_outline_ins);}
	.st44{filter:url(#Adobe_OpacityMaskFilter_21_);}
	.st45{mask:url(#mask21_outline_ins);}
	.st46{filter:url(#Adobe_OpacityMaskFilter_22_);}
	.st47{mask:url(#mask22_outline_ins);}
	.st48{filter:url(#Adobe_OpacityMaskFilter_23_);}
	.st49{mask:url(#mask23_outline_ins);}
	.st50{filter:url(#Adobe_OpacityMaskFilter_24_);}
	.st51{mask:url(#mask24_outline_ins);}
	.st52{filter:url(#Adobe_OpacityMaskFilter_25_);}
	.st53{mask:url(#mask25_outline_ins);}
	.st54{filter:url(#Adobe_OpacityMaskFilter_26_);}
	.st55{mask:url(#mask26_outline_ins);}
	.st56{filter:url(#Adobe_OpacityMaskFilter_27_);}
	.st57{mask:url(#mask27_outline_ins);}
	.st58{filter:url(#Adobe_OpacityMaskFilter_28_);}
	.st59{mask:url(#mask28_outline_ins);}
	.st60{filter:url(#Adobe_OpacityMaskFilter_29_);}
	.st61{mask:url(#mask29_outline_ins);}
	.st62{filter:url(#Adobe_OpacityMaskFilter_30_);}
	.st63{mask:url(#mask30_outline_ins);}
	.st64{filter:url(#Adobe_OpacityMaskFilter_31_);}
	.st65{mask:url(#mask31_outline_ins);}
	.st66{filter:url(#Adobe_OpacityMaskFilter_32_);}
	.st67{mask:url(#mask32_outline_ins);}
	.st68{filter:url(#Adobe_OpacityMaskFilter_33_);}
	.st69{mask:url(#mask33_outline_ins);}
	.st70{filter:url(#Adobe_OpacityMaskFilter_34_);}
	.st71{mask:url(#mask34_outline_ins);}
	.st72{filter:url(#Adobe_OpacityMaskFilter_35_);}
	.st73{mask:url(#mask35_outline_ins);}
	.st74{filter:url(#Adobe_OpacityMaskFilter_36_);}
	.st75{mask:url(#mask36_outline_ins);}
	.st76{filter:url(#Adobe_OpacityMaskFilter_37_);}
	.st77{mask:url(#mask37_outline_ins);}
	.st78{filter:url(#Adobe_OpacityMaskFilter_38_);}
	.st79{mask:url(#mask38_outline_ins);}
	.st80{font-family:'MyriadPro-Regular';}
	.st81{font-size:31px;}
	.st82{font-size:29.6809px;}
	.st83{font-size:24px;}
</style>
<g id="Layer_1" xmlns:figma="http://www.figma.com/figma/ns">
	<title>just_lines</title>
	<desc>Created using Figma</desc>
	<g id="Canvas" transform="translate(-1592 1109)" figma:type="canvas">
		<g id="just_lines" figma:type="frame">
			<g id="Vector" figma:type="vector">
				<defs>
					<filter id="Adobe_OpacityMaskFilter" filterUnits="userSpaceOnUse" x="1590" y="-1111" width="504" height="261">
						<feColorMatrix  type="matrix" values="1 0 0 0 0  0 1 0 0 0  0 0 1 0 0  0 0 0 1 0"/>
					</filter>
				</defs>
				<mask maskUnits="userSpaceOnUse" x="1590" y="-1111" width="504" height="261" id="mask0_outline_ins">
					<g transform="translate(1592 -1109)" class="st0">
						<path id="path0_fill" class="st1" d="M2092-1109h-500v257h500V-1109z"/>
					</g>
				</mask>
				<g class="st2">
					<g transform="translate(1592 -1109)">
						<path id="path1_stroke_2x" class="st3" d="M1592-1109v-2h-2v2H1592z M2092-1109h2v-2h-2V-1109z M2092-852v2h2v-2H2092z
							 M1592-852h-2v2h2V-852z M1592-1107h500v-4h-500V-1107z M2090-1109v257h4v-257H2090z M2092-854h-500v4h500V-854z M1594-852
							v-257h-4v257H1594z"/>
					</g>
				</g>
			</g>
			<g id="Vector_1_" figma:type="vector">
				<defs>
					<filter id="Adobe_OpacityMaskFilter_1_" filterUnits="userSpaceOnUse" x="1603.6" y="-1098" width="55.1" height="55.1">
						<feColorMatrix  type="matrix" values="1 0 0 0 0  0 1 0 0 0  0 0 1 0 0  0 0 0 1 0"/>
					</filter>
				</defs>
				<mask maskUnits="userSpaceOnUse" x="1603.6" y="-1098" width="55.1" height="55.1" id="mask1_outline_ins">
					<g transform="translate(1604.64 -1096.99)" class="st4">
						<path id="path2_fill" class="st1" d="M1657.7-1097h-53.1v53.1h53.1V-1097z"/>
					</g>
				</mask>
				<g class="st5">
					<g transform="translate(1604.64 -1096.99)">
						<path id="path3_stroke_2x" class="st3" d="M1604.6-1097v-1h-1v1H1604.6z M1657.7-1097h1v-1h-1V-1097z M1657.7-1043.9v1h1v-1
							H1657.7z M1604.6-1043.9h-1v1h1V-1043.9z M1604.6-1096h53.1v-2h-53.1V-1096z M1656.7-1097v53.1h2v-53.1H1656.7z
							 M1657.7-1044.9h-53.1v2h53.1V-1044.9z M1605.6-1043.9v-53.1h-2v53.1H1605.6z"/>
					</g>
				</g>
			</g>
			<g id="Vector_2_" figma:type="vector">
				<defs>
					<filter id="Adobe_OpacityMaskFilter_2_" filterUnits="userSpaceOnUse" x="1602.8" y="-1045" width="56.8" height="3.9">
						<feColorMatrix  type="matrix" values="1 0 0 0 0  0 1 0 0 0  0 0 1 0 0  0 0 0 1 0"/>
					</filter>
				</defs>
				<mask maskUnits="userSpaceOnUse" x="1602.8" y="-1045" width="56.8" height="3.9" id="mask2_outline_ins">
					<g transform="translate(1604.64 -1043.96)" class="st6">
						<path id="path4_fill" class="st1" d="M1656.5-1042h-50.6l-1.3-1.9h53.1L1656.5-1042z"/>
					</g>
				</mask>
				<g class="st7">
					<g transform="translate(1604.64 -1043.96)">
						<path id="path5_stroke_2x" class="st3" d="M1656.5-1042v1h0.5l0.3-0.5L1656.5-1042z M1605.9-1042l-0.8,0.5l0.3,0.5h0.5V-1042z
							 M1604.6-1044v-1h-1.8l1,1.5L1604.6-1044z M1657.7-1044l0.8,0.5l1-1.5h-1.8V-1044z M1656.5-1043h-50.6v2h50.6V-1043z
							 M1606.7-1042.6l-1.3-1.9l-1.7,1.1l1.3,1.9L1606.7-1042.6z M1604.6-1043h53.1v-2h-53.1V-1043z M1656.9-1044.5l-1.3,1.9
							l1.7,1.1l1.3-1.9L1656.9-1044.5z"/>
					</g>
				</g>
			</g>
			<g id="Vector_3_" figma:type="vector">
				<defs>
					<filter id="Adobe_OpacityMaskFilter_3_" filterUnits="userSpaceOnUse" x="1663.1" y="-1098" width="55.1" height="55.1">
						<feColorMatrix  type="matrix" values="1 0 0 0 0  0 1 0 0 0  0 0 1 0 0  0 0 0 1 0"/>
					</filter>
				</defs>
				<mask maskUnits="userSpaceOnUse" x="1663.1" y="-1098" width="55.1" height="55.1" id="mask3_outline_ins">
					<g transform="translate(1664.06 -1096.99)" class="st8">
						<path id="path2_fill_1_" class="st1" d="M1717.2-1097h-53.1v53.1h53.1V-1097z"/>
					</g>
				</mask>
				<g class="st9">
					<g transform="translate(1664.06 -1096.99)">
						<path id="path3_stroke_2x_1_" class="st3" d="M1664.1-1097v-1h-1v1H1664.1z M1717.2-1097h1v-1h-1V-1097z M1717.2-1043.9v1h1
							v-1H1717.2z M1664.1-1043.9h-1v1h1V-1043.9z M1664.1-1096h53.1v-2h-53.1V-1096z M1716.2-1097v53.1h2v-53.1H1716.2z
							 M1717.2-1044.9h-53.1v2h53.1V-1044.9z M1665.1-1043.9v-53.1h-2v53.1H1665.1z"/>
					</g>
				</g>
			</g>
			<g id="Vector_4_" figma:type="vector">
				<defs>
					<filter id="Adobe_OpacityMaskFilter_4_" filterUnits="userSpaceOnUse" x="1662.2" y="-1045" width="56.8" height="3.9">
						<feColorMatrix  type="matrix" values="1 0 0 0 0  0 1 0 0 0  0 0 1 0 0  0 0 0 1 0"/>
					</filter>
				</defs>
				<mask maskUnits="userSpaceOnUse" x="1662.2" y="-1045" width="56.8" height="3.9" id="mask4_outline_ins">
					<g transform="translate(1664.06 -1043.96)" class="st10">
						<path id="path4_fill_1_" class="st1" d="M1715.9-1042h-50.6l-1.3-1.9h53.1L1715.9-1042z"/>
					</g>
				</mask>
				<g class="st11">
					<g transform="translate(1664.06 -1043.96)">
						<path id="path5_stroke_2x_1_" class="st3" d="M1715.9-1042v1h0.5l0.3-0.5L1715.9-1042z M1665.3-1042l-0.8,0.5l0.3,0.5h0.5
							V-1042z M1664.1-1044v-1h-1.8l1,1.5L1664.1-1044z M1717.2-1044l0.8,0.5l1-1.5h-1.8V-1044z M1715.9-1043h-50.6v2h50.6V-1043z
							 M1666.2-1042.6l-1.3-1.9l-1.7,1.1l1.3,1.9L1666.2-1042.6z M1664.1-1043h53.1v-2h-53.1V-1043z M1716.3-1044.5l-1.3,1.9
							l1.7,1.1l1.3-1.9L1716.3-1044.5z"/>
					</g>
				</g>
			</g>
			<g id="Vector_5_" figma:type="vector">
				<defs>
					<filter id="Adobe_OpacityMaskFilter_5_" filterUnits="userSpaceOnUse" x="1603.6" y="-1038.6" width="55.1" height="55.1">
						<feColorMatrix  type="matrix" values="1 0 0 0 0  0 1 0 0 0  0 0 1 0 0  0 0 0 1 0"/>
					</filter>
				</defs>
				<mask maskUnits="userSpaceOnUse" x="1603.6" y="-1038.6" width="55.1" height="55.1" id="mask5_outline_ins">
					<g transform="translate(1604.64 -1037.6)" class="st12">
						<path id="path2_fill_2_" class="st1" d="M1657.7-1037.6h-53.1v53.1h53.1V-1037.6z"/>
					</g>
				</mask>
				<g class="st13">
					<g transform="translate(1604.64 -1037.6)">
						<path id="path3_stroke_2x_2_" class="st3" d="M1604.6-1037.6v-1h-1v1H1604.6z M1657.7-1037.6h1v-1h-1V-1037.6z M1657.7-984.5
							v1h1v-1H1657.7z M1604.6-984.5h-1v1h1V-984.5z M1604.6-1036.6h53.1v-2h-53.1V-1036.6z M1656.7-1037.6v53.1h2v-53.1H1656.7z
							 M1657.7-985.5h-53.1v2h53.1V-985.5z M1605.6-984.5v-53.1h-2v53.1H1605.6z"/>
					</g>
				</g>
			</g>
			<g id="Vector_6_" figma:type="vector">
				<defs>
					<filter id="Adobe_OpacityMaskFilter_6_" filterUnits="userSpaceOnUse" x="1602.8" y="-985.6" width="56.8" height="3.9">
						<feColorMatrix  type="matrix" values="1 0 0 0 0  0 1 0 0 0  0 0 1 0 0  0 0 0 1 0"/>
					</filter>
				</defs>
				<mask maskUnits="userSpaceOnUse" x="1602.8" y="-985.6" width="56.8" height="3.9" id="mask6_outline_ins">
					<g transform="translate(1604.64 -984.564)" class="st14">
						<path id="path6_fill" class="st1" d="M1656.5-982.6h-50.6l-1.3-1.9h53.1L1656.5-982.6z"/>
					</g>
				</mask>
				<g class="st15">
					<g transform="translate(1604.64 -984.564)">
						<path id="path7_stroke_2x" class="st3" d="M1656.5-982.6v1h0.5l0.3-0.5L1656.5-982.6z M1605.9-982.6l-0.8,0.5l0.3,0.5h0.5
							V-982.6z M1604.6-984.6v-1h-1.8l1,1.5L1604.6-984.6z M1657.7-984.6l0.8,0.5l1-1.5h-1.8V-984.6z M1656.5-983.6h-50.6v2h50.6
							V-983.6z M1606.7-983.2l-1.3-1.9l-1.7,1.1l1.3,1.9L1606.7-983.2z M1604.6-983.6h53.1v-2h-53.1V-983.6z M1656.9-985.1l-1.3,1.9
							l1.7,1.1l1.3-1.9L1656.9-985.1z"/>
					</g>
				</g>
			</g>
			<g id="Vector_7_" figma:type="vector">
				<defs>
					<filter id="Adobe_OpacityMaskFilter_7_" filterUnits="userSpaceOnUse" x="1663.1" y="-1039.2" width="55.1" height="55.1">
						<feColorMatrix  type="matrix" values="1 0 0 0 0  0 1 0 0 0  0 0 1 0 0  0 0 0 1 0"/>
					</filter>
				</defs>
				<mask maskUnits="userSpaceOnUse" x="1663.1" y="-1039.2" width="55.1" height="55.1" id="mask7_outline_ins">
					<g transform="translate(1664.06 -1038.23)" class="st16">
						<path id="path2_fill_3_" class="st1" d="M1717.2-1038.2h-53.1v53.1h53.1V-1038.2z"/>
					</g>
				</mask>
				<g class="st17">
					<g transform="translate(1664.06 -1038.23)">
						<path id="path3_stroke_2x_3_" class="st3" d="M1664.1-1038.2v-1h-1v1H1664.1z M1717.2-1038.2h1v-1h-1V-1038.2z M1717.2-985.2
							v1h1v-1H1717.2z M1664.1-985.2h-1v1h1V-985.2z M1664.1-1037.2h53.1v-2h-53.1V-1037.2z M1716.2-1038.2v53.1h2v-53.1H1716.2z
							 M1717.2-986.2h-53.1v2h53.1V-986.2z M1665.1-985.2v-53.1h-2v53.1H1665.1z"/>
					</g>
				</g>
			</g>
			<g id="Vector_8_" figma:type="vector">
				<defs>
					<filter id="Adobe_OpacityMaskFilter_8_" filterUnits="userSpaceOnUse" x="1662.2" y="-986.2" width="56.8" height="3.9">
						<feColorMatrix  type="matrix" values="1 0 0 0 0  0 1 0 0 0  0 0 1 0 0  0 0 0 1 0"/>
					</filter>
				</defs>
				<mask maskUnits="userSpaceOnUse" x="1662.2" y="-986.2" width="56.8" height="3.9" id="mask8_outline_ins">
					<g transform="translate(1664.06 -985.196)" class="st18">
						<path id="path6_fill_1_" class="st1" d="M1715.9-983.3h-50.6l-1.3-1.9h53.1L1715.9-983.3z"/>
					</g>
				</mask>
				<g class="st19">
					<g transform="translate(1664.06 -985.196)">
						<path id="path7_stroke_2x_1_" class="st3" d="M1715.9-983.3v1h0.5l0.3-0.5L1715.9-983.3z M1665.3-983.3l-0.8,0.5l0.3,0.5h0.5
							V-983.3z M1664.1-985.2v-1h-1.8l1,1.5L1664.1-985.2z M1717.2-985.2l0.8,0.5l1-1.5h-1.8V-985.2z M1715.9-984.3h-50.6v2h50.6
							V-984.3z M1666.2-983.8l-1.3-1.9l-1.7,1.1l1.3,1.9L1666.2-983.8z M1664.1-984.2h53.1v-2h-53.1V-984.2z M1716.3-985.7l-1.3,1.9
							l1.7,1.1l1.3-1.9L1716.3-985.7z"/>
					</g>
				</g>
			</g>
			<g id="Vector_9_" figma:type="vector">
				<defs>
					<filter id="Adobe_OpacityMaskFilter_9_" filterUnits="userSpaceOnUse" x="1603.6" y="-979.8" width="55.1" height="55.1">
						<feColorMatrix  type="matrix" values="1 0 0 0 0  0 1 0 0 0  0 0 1 0 0  0 0 0 1 0"/>
					</filter>
				</defs>
				<mask maskUnits="userSpaceOnUse" x="1603.6" y="-979.8" width="55.1" height="55.1" id="mask9_outline_ins">
					<g transform="translate(1604.64 -978.833)" class="st20">
						<path id="path2_fill_4_" class="st1" d="M1657.7-978.8h-53.1v53.1h53.1V-978.8z"/>
					</g>
				</mask>
				<g class="st21">
					<g transform="translate(1604.64 -978.833)">
						<path id="path3_stroke_2x_4_" class="st3" d="M1604.6-978.8v-1h-1v1H1604.6z M1657.7-978.8h1v-1h-1V-978.8z M1657.7-925.8v1h1
							v-1H1657.7z M1604.6-925.8h-1v1h1V-925.8z M1604.6-977.8h53.1v-2h-53.1V-977.8z M1656.7-978.8v53.1h2v-53.1H1656.7z
							 M1657.7-926.8h-53.1v2h53.1V-926.8z M1605.6-925.8v-53.1h-2v53.1H1605.6z"/>
					</g>
				</g>
			</g>
			<g id="Vector_10_" figma:type="vector">
				<defs>
					<filter id="Adobe_OpacityMaskFilter_10_" filterUnits="userSpaceOnUse" x="1602.8" y="-926.8" width="56.8" height="3.9">
						<feColorMatrix  type="matrix" values="1 0 0 0 0  0 1 0 0 0  0 0 1 0 0  0 0 0 1 0"/>
					</filter>
				</defs>
				<mask maskUnits="userSpaceOnUse" x="1602.8" y="-926.8" width="56.8" height="3.9" id="mask10_outline_ins">
					<g transform="translate(1604.64 -925.799)" class="st22">
						<path id="path6_fill_2_" class="st1" d="M1656.5-923.9h-50.6l-1.3-1.9h53.1L1656.5-923.9z"/>
					</g>
				</mask>
				<g class="st23">
					<g transform="translate(1604.64 -925.799)">
						<path id="path7_stroke_2x_2_" class="st3" d="M1656.5-923.9v1h0.5l0.3-0.5L1656.5-923.9z M1605.9-923.9l-0.8,0.5l0.3,0.5h0.5
							V-923.9z M1604.6-925.8v-1h-1.8l1,1.5L1604.6-925.8z M1657.7-925.8l0.8,0.5l1-1.5h-1.8V-925.8z M1656.5-924.9h-50.6v2h50.6
							V-924.9z M1606.7-924.4l-1.3-1.9l-1.7,1.1l1.3,1.9L1606.7-924.4z M1604.6-924.8h53.1v-2h-53.1V-924.8z M1656.9-926.3l-1.3,1.9
							l1.7,1.1l1.3-1.9L1656.9-926.3z"/>
					</g>
				</g>
			</g>
			<g id="Vector_11_" figma:type="vector">
				<defs>
					<filter id="Adobe_OpacityMaskFilter_11_" filterUnits="userSpaceOnUse" x="1663.1" y="-979.8" width="55.1" height="55.1">
						<feColorMatrix  type="matrix" values="1 0 0 0 0  0 1 0 0 0  0 0 1 0 0  0 0 0 1 0"/>
					</filter>
				</defs>
				<mask maskUnits="userSpaceOnUse" x="1663.1" y="-979.8" width="55.1" height="55.1" id="mask11_outline_ins">
					<g transform="translate(1664.06 -978.833)" class="st24">
						<path id="path2_fill_5_" class="st1" d="M1717.2-978.8h-53.1v53.1h53.1V-978.8z"/>
					</g>
				</mask>
				<g class="st25">
					<g transform="translate(1664.06 -978.833)">
						<path id="path3_stroke_2x_5_" class="st3" d="M1664.1-978.8v-1h-1v1H1664.1z M1717.2-978.8h1v-1h-1V-978.8z M1717.2-925.8v1h1
							v-1H1717.2z M1664.1-925.8h-1v1h1V-925.8z M1664.1-977.8h53.1v-2h-53.1V-977.8z M1716.2-978.8v53.1h2v-53.1H1716.2z
							 M1717.2-926.8h-53.1v2h53.1V-926.8z M1665.1-925.8v-53.1h-2v53.1H1665.1z"/>
					</g>
				</g>
			</g>
			<g id="Vector_12_" figma:type="vector">
				<defs>
					<filter id="Adobe_OpacityMaskFilter_12_" filterUnits="userSpaceOnUse" x="1662.2" y="-926.8" width="56.8" height="3.9">
						<feColorMatrix  type="matrix" values="1 0 0 0 0  0 1 0 0 0  0 0 1 0 0  0 0 0 1 0"/>
					</filter>
				</defs>
				<mask maskUnits="userSpaceOnUse" x="1662.2" y="-926.8" width="56.8" height="3.9" id="mask12_outline_ins">
					<g transform="translate(1664.06 -925.799)" class="st26">
						<path id="path6_fill_3_" class="st1" d="M1715.9-923.9h-50.6l-1.3-1.9h53.1L1715.9-923.9z"/>
					</g>
				</mask>
				<g class="st27">
					<g transform="translate(1664.06 -925.799)">
						<path id="path7_stroke_2x_3_" class="st3" d="M1715.9-923.9v1h0.5l0.3-0.5L1715.9-923.9z M1665.3-923.9l-0.8,0.5l0.3,0.5h0.5
							V-923.9z M1664.1-925.8v-1h-1.8l1,1.5L1664.1-925.8z M1717.2-925.8l0.8,0.5l1-1.5h-1.8V-925.8z M1715.9-924.9h-50.6v2h50.6
							V-924.9z M1666.2-924.4l-1.3-1.9l-1.7,1.1l1.3,1.9L1666.2-924.4z M1664.1-924.8h53.1v-2h-53.1V-924.8z M1716.3-926.3l-1.3,1.9
							l1.7,1.1l1.3-1.9L1716.3-926.3z"/>
					</g>
				</g>
			</g>
			<g id="Vector_13_" figma:type="vector">
				<defs>
					<filter id="Adobe_OpacityMaskFilter_13_" filterUnits="userSpaceOnUse" x="1603.6" y="-920.4" width="55.1" height="55.1">
						<feColorMatrix  type="matrix" values="1 0 0 0 0  0 1 0 0 0  0 0 1 0 0  0 0 0 1 0"/>
					</filter>
				</defs>
				<mask maskUnits="userSpaceOnUse" x="1603.6" y="-920.4" width="55.1" height="55.1" id="mask13_outline_ins">
					<g transform="translate(1604.64 -919.436)" class="st28">
						<path id="path2_fill_6_" class="st1" d="M1657.7-919.4h-53.1v53.1h53.1V-919.4z"/>
					</g>
				</mask>
				<g class="st29">
					<g transform="translate(1604.64 -919.436)">
						<path id="path3_stroke_2x_6_" class="st3" d="M1604.6-919.4v-1h-1v1H1604.6z M1657.7-919.4h1v-1h-1V-919.4z M1657.7-866.4v1h1
							v-1H1657.7z M1604.6-866.4h-1v1h1V-866.4z M1604.6-918.4h53.1v-2h-53.1V-918.4z M1656.7-919.4v53.1h2v-53.1H1656.7z
							 M1657.7-867.4h-53.1v2h53.1V-867.4z M1605.6-866.4v-53.1h-2v53.1H1605.6z"/>
					</g>
				</g>
			</g>
			<g id="Vector_14_" figma:type="vector">
				<defs>
					<filter id="Adobe_OpacityMaskFilter_14_" filterUnits="userSpaceOnUse" x="1602.8" y="-867.4" width="56.8" height="3.9">
						<feColorMatrix  type="matrix" values="1 0 0 0 0  0 1 0 0 0  0 0 1 0 0  0 0 0 1 0"/>
					</filter>
				</defs>
				<mask maskUnits="userSpaceOnUse" x="1602.8" y="-867.4" width="56.8" height="3.9" id="mask14_outline_ins">
					<g transform="translate(1604.64 -866.403)" class="st30">
						<path id="path6_fill_4_" class="st1" d="M1656.5-864.5h-50.6l-1.3-1.9h53.1L1656.5-864.5z"/>
					</g>
				</mask>
				<g class="st31">
					<g transform="translate(1604.64 -866.403)">
						<path id="path7_stroke_2x_4_" class="st3" d="M1656.5-864.5v1h0.5l0.3-0.5L1656.5-864.5z M1605.9-864.5l-0.8,0.5l0.3,0.5h0.5
							V-864.5z M1604.6-866.4v-1h-1.8l1,1.5L1604.6-866.4z M1657.7-866.4l0.8,0.5l1-1.5h-1.8V-866.4z M1656.5-865.5h-50.6v2h50.6
							V-865.5z M1606.7-865l-1.3-1.9l-1.7,1.1l1.3,1.9L1606.7-865z M1604.6-865.4h53.1v-2h-53.1V-865.4z M1656.9-866.9l-1.3,1.9
							l1.7,1.1l1.3-1.9L1656.9-866.9z"/>
					</g>
				</g>
			</g>
			<g id="Vector_15_" figma:type="vector">
				<defs>
					<filter id="Adobe_OpacityMaskFilter_15_" filterUnits="userSpaceOnUse" x="1663.1" y="-921.1" width="55.1" height="55.1">
						<feColorMatrix  type="matrix" values="1 0 0 0 0  0 1 0 0 0  0 0 1 0 0  0 0 0 1 0"/>
					</filter>
				</defs>
				<mask maskUnits="userSpaceOnUse" x="1663.1" y="-921.1" width="55.1" height="55.1" id="mask15_outline_ins">
					<g transform="translate(1664.06 -920.068)" class="st32">
						<path id="path2_fill_7_" class="st1" d="M1717.2-920.1h-53.1v53.1h53.1V-920.1z"/>
					</g>
				</mask>
				<g class="st33">
					<g transform="translate(1664.06 -920.068)">
						<path id="path3_stroke_2x_7_" class="st3" d="M1664.1-920.1v-1h-1v1H1664.1z M1717.2-920.1h1v-1h-1V-920.1z M1717.2-867v1h1
							v-1H1717.2z M1664.1-867h-1v1h1V-867z M1664.1-919.1h53.1v-2h-53.1V-919.1z M1716.2-920.1v53.1h2v-53.1H1716.2z M1717.2-868
							h-53.1v2h53.1V-868z M1665.1-867v-53.1h-2v53.1H1665.1z"/>
					</g>
				</g>
			</g>
			<g id="Vector_16_" figma:type="vector">
				<defs>
					<filter id="Adobe_OpacityMaskFilter_16_" filterUnits="userSpaceOnUse" x="1662.2" y="-868" width="56.8" height="3.9">
						<feColorMatrix  type="matrix" values="1 0 0 0 0  0 1 0 0 0  0 0 1 0 0  0 0 0 1 0"/>
					</filter>
				</defs>
				<mask maskUnits="userSpaceOnUse" x="1662.2" y="-868" width="56.8" height="3.9" id="mask16_outline_ins">
					<g transform="translate(1664.06 -867.035)" class="st34">
						<path id="path6_fill_5_" class="st1" d="M1715.9-865.1h-50.6l-1.3-1.9h53.1L1715.9-865.1z"/>
					</g>
				</mask>
				<g class="st35">
					<g transform="translate(1664.06 -867.035)">
						<path id="path7_stroke_2x_5_" class="st3" d="M1715.9-865.1v1h0.5l0.3-0.5L1715.9-865.1z M1665.3-865.1l-0.8,0.5l0.3,0.5h0.5
							V-865.1z M1664.1-867v-1h-1.8l1,1.5L1664.1-867z M1717.2-867l0.8,0.5l1-1.5h-1.8V-867z M1715.9-866.1h-50.6v2h50.6V-866.1z
							 M1666.2-865.6l-1.3-1.9l-1.7,1.1l1.3,1.9L1666.2-865.6z M1664.1-866h53.1v-2h-53.1V-866z M1716.3-867.6l-1.3,1.9l1.7,1.1
							l1.3-1.9L1716.3-867.6z"/>
					</g>
				</g>
			</g>
			<g id="Vector_17_" figma:type="vector">
				<defs>
					<filter id="Adobe_OpacityMaskFilter_17_" filterUnits="userSpaceOnUse" x="1722.5" y="-1098" width="55.1" height="55.1">
						<feColorMatrix  type="matrix" values="1 0 0 0 0  0 1 0 0 0  0 0 1 0 0  0 0 0 1 0"/>
					</filter>
				</defs>
				<mask maskUnits="userSpaceOnUse" x="1722.5" y="-1098" width="55.1" height="55.1" id="mask17_outline_ins">
					<g transform="translate(1723.48 -1096.99)" class="st36">
						<path id="path2_fill_8_" class="st1" d="M1776.6-1097h-53.1v53.1h53.1V-1097z"/>
					</g>
				</mask>
				<g class="st37">
					<g transform="translate(1723.48 -1096.99)">
						<path id="path3_stroke_2x_8_" class="st3" d="M1723.5-1097v-1h-1v1H1723.5z M1776.6-1097h1v-1h-1V-1097z M1776.6-1043.9v1h1
							v-1H1776.6z M1723.5-1043.9h-1v1h1V-1043.9z M1723.5-1096h53.1v-2h-53.1V-1096z M1775.6-1097v53.1h2v-53.1H1775.6z
							 M1776.6-1044.9h-53.1v2h53.1V-1044.9z M1724.5-1043.9v-53.1h-2v53.1H1724.5z"/>
					</g>
				</g>
			</g>
			<g id="Vector_18_" figma:type="vector">
				<defs>
					<filter id="Adobe_OpacityMaskFilter_18_" filterUnits="userSpaceOnUse" x="1721.6" y="-1045" width="56.8" height="3.9">
						<feColorMatrix  type="matrix" values="1 0 0 0 0  0 1 0 0 0  0 0 1 0 0  0 0 0 1 0"/>
					</filter>
				</defs>
				<mask maskUnits="userSpaceOnUse" x="1721.6" y="-1045" width="56.8" height="3.9" id="mask18_outline_ins">
					<g transform="translate(1723.48 -1043.96)" class="st38">
						<path id="path4_fill_2_" class="st1" d="M1775.3-1042h-50.6l-1.3-1.9h53.1L1775.3-1042z"/>
					</g>
				</mask>
				<g class="st39">
					<g transform="translate(1723.48 -1043.96)">
						<path id="path5_stroke_2x_2_" class="st3" d="M1775.3-1042v1h0.5l0.3-0.5L1775.3-1042z M1724.7-1042l-0.8,0.5l0.3,0.5h0.5
							V-1042z M1723.5-1044v-1h-1.8l1,1.5L1723.5-1044z M1776.6-1044l0.8,0.5l1-1.5h-1.8V-1044z M1775.3-1043h-50.6v2h50.6V-1043z
							 M1725.6-1042.6l-1.3-1.9l-1.7,1.1l1.3,1.9L1725.6-1042.6z M1723.5-1043h53.1v-2h-53.1V-1043z M1775.7-1044.5l-1.3,1.9
							l1.7,1.1l1.3-1.9L1775.7-1044.5z"/>
					</g>
				</g>
			</g>
			<g id="Vector_19_" figma:type="vector">
				<defs>
					<filter id="Adobe_OpacityMaskFilter_19_" filterUnits="userSpaceOnUse" x="1781.9" y="-1098" width="55.1" height="55.1">
						<feColorMatrix  type="matrix" values="1 0 0 0 0  0 1 0 0 0  0 0 1 0 0  0 0 0 1 0"/>
					</filter>
				</defs>
				<mask maskUnits="userSpaceOnUse" x="1781.9" y="-1098" width="55.1" height="55.1" id="mask19_outline_ins">
					<g transform="translate(1782.9 -1096.99)" class="st40">
						<path id="path2_fill_9_" class="st1" d="M1836-1097h-53.1v53.1h53.1V-1097z"/>
					</g>
				</mask>
				<g class="st41">
					<g transform="translate(1782.9 -1096.99)">
						<path id="path3_stroke_2x_9_" class="st3" d="M1782.9-1097v-1h-1v1H1782.9z M1836-1097h1v-1h-1V-1097z M1836-1043.9v1h1v-1
							H1836z M1782.9-1043.9h-1v1h1V-1043.9z M1782.9-1096h53.1v-2h-53.1V-1096z M1835-1097v53.1h2v-53.1H1835z M1836-1044.9h-53.1
							v2h53.1V-1044.9z M1783.9-1043.9v-53.1h-2v53.1H1783.9z"/>
					</g>
				</g>
			</g>
			<g id="Vector_20_" figma:type="vector">
				<defs>
					<filter id="Adobe_OpacityMaskFilter_20_" filterUnits="userSpaceOnUse" x="1781.1" y="-1045" width="56.8" height="3.9">
						<feColorMatrix  type="matrix" values="1 0 0 0 0  0 1 0 0 0  0 0 1 0 0  0 0 0 1 0"/>
					</filter>
				</defs>
				<mask maskUnits="userSpaceOnUse" x="1781.1" y="-1045" width="56.8" height="3.9" id="mask20_outline_ins">
					<g transform="translate(1782.9 -1043.96)" class="st42">
						<path id="path4_fill_3_" class="st1" d="M1834.7-1042h-50.6l-1.3-1.9h53.1L1834.7-1042z"/>
					</g>
				</mask>
				<g class="st43">
					<g transform="translate(1782.9 -1043.96)">
						<path id="path5_stroke_2x_3_" class="st3" d="M1834.7-1042v1h0.5l0.3-0.5L1834.7-1042z M1784.2-1042l-0.8,0.5l0.3,0.5h0.5
							V-1042z M1782.9-1044v-1h-1.8l1,1.5L1782.9-1044z M1836-1044l0.8,0.5l1-1.5h-1.8V-1044z M1834.7-1043h-50.6v2h50.6V-1043z
							 M1785-1042.6l-1.3-1.9l-1.7,1.1l1.3,1.9L1785-1042.6z M1782.9-1043h53.1v-2h-53.1V-1043z M1835.2-1044.5l-1.3,1.9l1.7,1.1
							l1.3-1.9L1835.2-1044.5z"/>
					</g>
				</g>
			</g>
			<g id="Vector_21_" figma:type="vector">
				<defs>
					<filter id="Adobe_OpacityMaskFilter_21_" filterUnits="userSpaceOnUse" x="1722.5" y="-1038.6" width="55.1" height="55.1">
						<feColorMatrix  type="matrix" values="1 0 0 0 0  0 1 0 0 0  0 0 1 0 0  0 0 0 1 0"/>
					</filter>
				</defs>
				<mask maskUnits="userSpaceOnUse" x="1722.5" y="-1038.6" width="55.1" height="55.1" id="mask21_outline_ins">
					<g transform="translate(1723.48 -1037.6)" class="st44">
						<path id="path2_fill_10_" class="st1" d="M1776.6-1037.6h-53.1v53.1h53.1V-1037.6z"/>
					</g>
				</mask>
				<g class="st45">
					<g transform="translate(1723.48 -1037.6)">
						<path id="path3_stroke_2x_10_" class="st3" d="M1723.5-1037.6v-1h-1v1H1723.5z M1776.6-1037.6h1v-1h-1V-1037.6z M1776.6-984.5
							v1h1v-1H1776.6z M1723.5-984.5h-1v1h1V-984.5z M1723.5-1036.6h53.1v-2h-53.1V-1036.6z M1775.6-1037.6v53.1h2v-53.1H1775.6z
							 M1776.6-985.5h-53.1v2h53.1V-985.5z M1724.5-984.5v-53.1h-2v53.1H1724.5z"/>
					</g>
				</g>
			</g>
			<g id="Vector_22_" figma:type="vector">
				<defs>
					<filter id="Adobe_OpacityMaskFilter_22_" filterUnits="userSpaceOnUse" x="1721.6" y="-985.6" width="56.8" height="3.9">
						<feColorMatrix  type="matrix" values="1 0 0 0 0  0 1 0 0 0  0 0 1 0 0  0 0 0 1 0"/>
					</filter>
				</defs>
				<mask maskUnits="userSpaceOnUse" x="1721.6" y="-985.6" width="56.8" height="3.9" id="mask22_outline_ins">
					<g transform="translate(1723.48 -984.564)" class="st46">
						<path id="path6_fill_6_" class="st1" d="M1775.3-982.6h-50.6l-1.3-1.9h53.1L1775.3-982.6z"/>
					</g>
				</mask>
				<g class="st47">
					<g transform="translate(1723.48 -984.564)">
						<path id="path7_stroke_2x_6_" class="st3" d="M1775.3-982.6v1h0.5l0.3-0.5L1775.3-982.6z M1724.7-982.6l-0.8,0.5l0.3,0.5h0.5
							V-982.6z M1723.5-984.6v-1h-1.8l1,1.5L1723.5-984.6z M1776.6-984.6l0.8,0.5l1-1.5h-1.8V-984.6z M1775.3-983.6h-50.6v2h50.6
							V-983.6z M1725.6-983.2l-1.3-1.9l-1.7,1.1l1.3,1.9L1725.6-983.2z M1723.5-983.6h53.1v-2h-53.1V-983.6z M1775.7-985.1l-1.3,1.9
							l1.7,1.1l1.3-1.9L1775.7-985.1z"/>
					</g>
				</g>
			</g>
			<g id="Vector_23_" figma:type="vector">
				<defs>
					<filter id="Adobe_OpacityMaskFilter_23_" filterUnits="userSpaceOnUse" x="1781.9" y="-1039.2" width="55.1" height="55.1">
						<feColorMatrix  type="matrix" values="1 0 0 0 0  0 1 0 0 0  0 0 1 0 0  0 0 0 1 0"/>
					</filter>
				</defs>
				<mask maskUnits="userSpaceOnUse" x="1781.9" y="-1039.2" width="55.1" height="55.1" id="mask23_outline_ins">
					<g transform="translate(1782.9 -1038.23)" class="st48">
						<path id="path2_fill_11_" class="st1" d="M1836-1038.2h-53.1v53.1h53.1V-1038.2z"/>
					</g>
				</mask>
				<g class="st49">
					<g transform="translate(1782.9 -1038.23)">
						<path id="path3_stroke_2x_11_" class="st3" d="M1782.9-1038.2v-1h-1v1H1782.9z M1836-1038.2h1v-1h-1V-1038.2z M1836-985.2v1h1
							v-1H1836z M1782.9-985.2h-1v1h1V-985.2z M1782.9-1037.2h53.1v-2h-53.1V-1037.2z M1835-1038.2v53.1h2v-53.1H1835z M1836-986.2
							h-53.1v2h53.1V-986.2z M1783.9-985.2v-53.1h-2v53.1H1783.9z"/>
					</g>
				</g>
			</g>
			<g id="Vector_24_" figma:type="vector">
				<defs>
					<filter id="Adobe_OpacityMaskFilter_24_" filterUnits="userSpaceOnUse" x="1781.1" y="-986.2" width="56.8" height="3.9">
						<feColorMatrix  type="matrix" values="1 0 0 0 0  0 1 0 0 0  0 0 1 0 0  0 0 0 1 0"/>
					</filter>
				</defs>
				<mask maskUnits="userSpaceOnUse" x="1781.1" y="-986.2" width="56.8" height="3.9" id="mask24_outline_ins">
					<g transform="translate(1782.9 -985.196)" class="st50">
						<path id="path6_fill_7_" class="st1" d="M1834.7-983.3h-50.6l-1.3-1.9h53.1L1834.7-983.3z"/>
					</g>
				</mask>
				<g class="st51">
					<g transform="translate(1782.9 -985.196)">
						<path id="path7_stroke_2x_7_" class="st3" d="M1834.7-983.3v1h0.5l0.3-0.5L1834.7-983.3z M1784.2-983.3l-0.8,0.5l0.3,0.5h0.5
							V-983.3z M1782.9-985.2v-1h-1.8l1,1.5L1782.9-985.2z M1836-985.2l0.8,0.5l1-1.5h-1.8V-985.2z M1834.7-984.3h-50.6v2h50.6
							V-984.3z M1785-983.8l-1.3-1.9l-1.7,1.1l1.3,1.9L1785-983.8z M1782.9-984.2h53.1v-2h-53.1V-984.2z M1835.2-985.7l-1.3,1.9
							l1.7,1.1l1.3-1.9L1835.2-985.7z"/>
					</g>
				</g>
			</g>
			<g id="Vector_25_" figma:type="vector">
				<defs>
					<filter id="Adobe_OpacityMaskFilter_25_" filterUnits="userSpaceOnUse" x="1722.5" y="-979.8" width="55.1" height="55.1">
						<feColorMatrix  type="matrix" values="1 0 0 0 0  0 1 0 0 0  0 0 1 0 0  0 0 0 1 0"/>
					</filter>
				</defs>
				<mask maskUnits="userSpaceOnUse" x="1722.5" y="-979.8" width="55.1" height="55.1" id="mask25_outline_ins">
					<g transform="translate(1723.48 -978.833)" class="st52">
						<path id="path2_fill_12_" class="st1" d="M1776.6-978.8h-53.1v53.1h53.1V-978.8z"/>
					</g>
				</mask>
				<g class="st53">
					<g transform="translate(1723.48 -978.833)">
						<path id="path3_stroke_2x_12_" class="st3" d="M1723.5-978.8v-1h-1v1H1723.5z M1776.6-978.8h1v-1h-1V-978.8z M1776.6-925.8v1
							h1v-1H1776.6z M1723.5-925.8h-1v1h1V-925.8z M1723.5-977.8h53.1v-2h-53.1V-977.8z M1775.6-978.8v53.1h2v-53.1H1775.6z
							 M1776.6-926.8h-53.1v2h53.1V-926.8z M1724.5-925.8v-53.1h-2v53.1H1724.5z"/>
					</g>
				</g>
			</g>
			<g id="Vector_26_" figma:type="vector">
				<defs>
					<filter id="Adobe_OpacityMaskFilter_26_" filterUnits="userSpaceOnUse" x="1721.6" y="-926.8" width="56.8" height="3.9">
						<feColorMatrix  type="matrix" values="1 0 0 0 0  0 1 0 0 0  0 0 1 0 0  0 0 0 1 0"/>
					</filter>
				</defs>
				<mask maskUnits="userSpaceOnUse" x="1721.6" y="-926.8" width="56.8" height="3.9" id="mask26_outline_ins">
					<g transform="translate(1723.48 -925.799)" class="st54">
						<path id="path6_fill_8_" class="st1" d="M1775.3-923.9h-50.6l-1.3-1.9h53.1L1775.3-923.9z"/>
					</g>
				</mask>
				<g class="st55">
					<g transform="translate(1723.48 -925.799)">
						<path id="path7_stroke_2x_8_" class="st3" d="M1775.3-923.9v1h0.5l0.3-0.5L1775.3-923.9z M1724.7-923.9l-0.8,0.5l0.3,0.5h0.5
							V-923.9z M1723.5-925.8v-1h-1.8l1,1.5L1723.5-925.8z M1776.6-925.8l0.8,0.5l1-1.5h-1.8V-925.8z M1775.3-924.9h-50.6v2h50.6
							V-924.9z M1725.6-924.4l-1.3-1.9l-1.7,1.1l1.3,1.9L1725.6-924.4z M1723.5-924.8h53.1v-2h-53.1V-924.8z M1775.7-926.3l-1.3,1.9
							l1.7,1.1l1.3-1.9L1775.7-926.3z"/>
					</g>
				</g>
			</g>
			<g id="Vector_27_" figma:type="vector">
				<defs>
					<filter id="Adobe_OpacityMaskFilter_27_" filterUnits="userSpaceOnUse" x="1781.9" y="-979.8" width="55.1" height="55.1">
						<feColorMatrix  type="matrix" values="1 0 0 0 0  0 1 0 0 0  0 0 1 0 0  0 0 0 1 0"/>
					</filter>
				</defs>
				<mask maskUnits="userSpaceOnUse" x="1781.9" y="-979.8" width="55.1" height="55.1" id="mask27_outline_ins">
					<g transform="translate(1782.9 -978.833)" class="st56">
						<path id="path2_fill_13_" class="st1" d="M1836-978.8h-53.1v53.1h53.1V-978.8z"/>
					</g>
				</mask>
				<g class="st57">
					<g transform="translate(1782.9 -978.833)">
						<path id="path3_stroke_2x_13_" class="st3" d="M1782.9-978.8v-1h-1v1H1782.9z M1836-978.8h1v-1h-1V-978.8z M1836-925.8v1h1v-1
							H1836z M1782.9-925.8h-1v1h1V-925.8z M1782.9-977.8h53.1v-2h-53.1V-977.8z M1835-978.8v53.1h2v-53.1H1835z M1836-926.8h-53.1
							v2h53.1V-926.8z M1783.9-925.8v-53.1h-2v53.1H1783.9z"/>
					</g>
				</g>
			</g>
			<g id="Vector_28_" figma:type="vector">
				<defs>
					<filter id="Adobe_OpacityMaskFilter_28_" filterUnits="userSpaceOnUse" x="1781.1" y="-926.8" width="56.8" height="3.9">
						<feColorMatrix  type="matrix" values="1 0 0 0 0  0 1 0 0 0  0 0 1 0 0  0 0 0 1 0"/>
					</filter>
				</defs>
				<mask maskUnits="userSpaceOnUse" x="1781.1" y="-926.8" width="56.8" height="3.9" id="mask28_outline_ins">
					<g transform="translate(1782.9 -925.799)" class="st58">
						<path id="path6_fill_9_" class="st1" d="M1834.7-923.9h-50.6l-1.3-1.9h53.1L1834.7-923.9z"/>
					</g>
				</mask>
				<g class="st59">
					<g transform="translate(1782.9 -925.799)">
						<path id="path7_stroke_2x_9_" class="st3" d="M1834.7-923.9v1h0.5l0.3-0.5L1834.7-923.9z M1784.2-923.9l-0.8,0.5l0.3,0.5h0.5
							V-923.9z M1782.9-925.8v-1h-1.8l1,1.5L1782.9-925.8z M1836-925.8l0.8,0.5l1-1.5h-1.8V-925.8z M1834.7-924.9h-50.6v2h50.6
							V-924.9z M1785-924.4l-1.3-1.9l-1.7,1.1l1.3,1.9L1785-924.4z M1782.9-924.8h53.1v-2h-53.1V-924.8z M1835.2-926.3l-1.3,1.9
							l1.7,1.1l1.3-1.9L1835.2-926.3z"/>
					</g>
				</g>
			</g>
			<g id="Vector_29_" figma:type="vector">
				<defs>
					<filter id="Adobe_OpacityMaskFilter_29_" filterUnits="userSpaceOnUse" x="1722.5" y="-920.4" width="55.1" height="55.1">
						<feColorMatrix  type="matrix" values="1 0 0 0 0  0 1 0 0 0  0 0 1 0 0  0 0 0 1 0"/>
					</filter>
				</defs>
				<mask maskUnits="userSpaceOnUse" x="1722.5" y="-920.4" width="55.1" height="55.1" id="mask29_outline_ins">
					<g transform="translate(1723.48 -919.436)" class="st60">
						<path id="path2_fill_14_" class="st1" d="M1776.6-919.4h-53.1v53.1h53.1V-919.4z"/>
					</g>
				</mask>
				<g class="st61">
					<g transform="translate(1723.48 -919.436)">
						<path id="path3_stroke_2x_14_" class="st3" d="M1723.5-919.4v-1h-1v1H1723.5z M1776.6-919.4h1v-1h-1V-919.4z M1776.6-866.4v1
							h1v-1H1776.6z M1723.5-866.4h-1v1h1V-866.4z M1723.5-918.4h53.1v-2h-53.1V-918.4z M1775.6-919.4v53.1h2v-53.1H1775.6z
							 M1776.6-867.4h-53.1v2h53.1V-867.4z M1724.5-866.4v-53.1h-2v53.1H1724.5z"/>
					</g>
				</g>
			</g>
			<g id="Vector_30_" figma:type="vector">
				<defs>
					<filter id="Adobe_OpacityMaskFilter_30_" filterUnits="userSpaceOnUse" x="1721.6" y="-867.4" width="56.8" height="3.9">
						<feColorMatrix  type="matrix" values="1 0 0 0 0  0 1 0 0 0  0 0 1 0 0  0 0 0 1 0"/>
					</filter>
				</defs>
				<mask maskUnits="userSpaceOnUse" x="1721.6" y="-867.4" width="56.8" height="3.9" id="mask30_outline_ins">
					<g transform="translate(1723.48 -866.403)" class="st62">
						<path id="path6_fill_10_" class="st1" d="M1775.3-864.5h-50.6l-1.3-1.9h53.1L1775.3-864.5z"/>
					</g>
				</mask>
				<g class="st63">
					<g transform="translate(1723.48 -866.403)">
						<path id="path7_stroke_2x_10_" class="st3" d="M1775.3-864.5v1h0.5l0.3-0.5L1775.3-864.5z M1724.7-864.5l-0.8,0.5l0.3,0.5h0.5
							V-864.5z M1723.5-866.4v-1h-1.8l1,1.5L1723.5-866.4z M1776.6-866.4l0.8,0.5l1-1.5h-1.8V-866.4z M1775.3-865.5h-50.6v2h50.6
							V-865.5z M1725.6-865l-1.3-1.9l-1.7,1.1l1.3,1.9L1725.6-865z M1723.5-865.4h53.1v-2h-53.1V-865.4z M1775.7-866.9l-1.3,1.9
							l1.7,1.1l1.3-1.9L1775.7-866.9z"/>
					</g>
				</g>
			</g>
			<g id="Vector_31_" figma:type="vector">
				<defs>
					<filter id="Adobe_OpacityMaskFilter_31_" filterUnits="userSpaceOnUse" x="1781.9" y="-921.1" width="55.1" height="55.1">
						<feColorMatrix  type="matrix" values="1 0 0 0 0  0 1 0 0 0  0 0 1 0 0  0 0 0 1 0"/>
					</filter>
				</defs>
				<mask maskUnits="userSpaceOnUse" x="1781.9" y="-921.1" width="55.1" height="55.1" id="mask31_outline_ins">
					<g transform="translate(1782.9 -920.068)" class="st64">
						<path id="path2_fill_15_" class="st1" d="M1836-920.1h-53.1v53.1h53.1V-920.1z"/>
					</g>
				</mask>
				<g class="st65">
					<g transform="translate(1782.9 -920.068)">
						<path id="path3_stroke_2x_15_" class="st3" d="M1782.9-920.1v-1h-1v1H1782.9z M1836-920.1h1v-1h-1V-920.1z M1836-867v1h1v-1
							H1836z M1782.9-867h-1v1h1V-867z M1782.9-919.1h53.1v-2h-53.1V-919.1z M1835-920.1v53.1h2v-53.1H1835z M1836-868h-53.1v2h53.1
							V-868z M1783.9-867v-53.1h-2v53.1H1783.9z"/>
					</g>
				</g>
			</g>
			<g id="Vector_32_" figma:type="vector">
				<defs>
					<filter id="Adobe_OpacityMaskFilter_32_" filterUnits="userSpaceOnUse" x="1781.1" y="-868" width="56.8" height="3.9">
						<feColorMatrix  type="matrix" values="1 0 0 0 0  0 1 0 0 0  0 0 1 0 0  0 0 0 1 0"/>
					</filter>
				</defs>
				<mask maskUnits="userSpaceOnUse" x="1781.1" y="-868" width="56.8" height="3.9" id="mask32_outline_ins">
					<g transform="translate(1782.9 -867.035)" class="st66">
						<path id="path6_fill_11_" class="st1" d="M1834.7-865.1h-50.6l-1.3-1.9h53.1L1834.7-865.1z"/>
					</g>
				</mask>
				<g class="st67">
					<g transform="translate(1782.9 -867.035)">
						<path id="path7_stroke_2x_11_" class="st3" d="M1834.7-865.1v1h0.5l0.3-0.5L1834.7-865.1z M1784.2-865.1l-0.8,0.5l0.3,0.5h0.5
							V-865.1z M1782.9-867v-1h-1.8l1,1.5L1782.9-867z M1836-867l0.8,0.5l1-1.5h-1.8V-867z M1834.7-866.1h-50.6v2h50.6V-866.1z
							 M1785-865.6l-1.3-1.9l-1.7,1.1l1.3,1.9L1785-865.6z M1782.9-866h53.1v-2h-53.1V-866z M1835.2-867.6l-1.3,1.9l1.7,1.1l1.3-1.9
							L1835.2-867.6z"/>
					</g>
				</g>
			</g>
			<g id="Vector_33_" figma:type="vector">
				<defs>
					<filter id="Adobe_OpacityMaskFilter_33_" filterUnits="userSpaceOnUse" x="1781.1" y="-868" width="56.8" height="3.9">
						<feColorMatrix  type="matrix" values="1 0 0 0 0  0 1 0 0 0  0 0 1 0 0  0 0 0 1 0"/>
					</filter>
				</defs>
				<mask maskUnits="userSpaceOnUse" x="1781.1" y="-868" width="56.8" height="3.9" id="mask33_outline_ins">
					<g transform="translate(1782.9 -867.035)" class="st68">
						<path id="path6_fill_12_" class="st1" d="M1834.7-865.1h-50.6l-1.3-1.9h53.1L1834.7-865.1z"/>
					</g>
				</mask>
				<g class="st69">
					<g transform="translate(1782.9 -867.035)">
						<path id="path7_stroke_2x_12_" class="st3" d="M1834.7-865.1v1h0.5l0.3-0.5L1834.7-865.1z M1784.2-865.1l-0.8,0.5l0.3,0.5h0.5
							V-865.1z M1782.9-867v-1h-1.8l1,1.5L1782.9-867z M1836-867l0.8,0.5l1-1.5h-1.8V-867z M1834.7-866.1h-50.6v2h50.6V-866.1z
							 M1785-865.6l-1.3-1.9l-1.7,1.1l1.3,1.9L1785-865.6z M1782.9-866h53.1v-2h-53.1V-866z M1835.2-867.6l-1.3,1.9l1.7,1.1l1.3-1.9
							L1835.2-867.6z"/>
					</g>
				</g>
			</g>
			<g id="Vector_34_" figma:type="vector">
				<defs>
					<filter id="Adobe_OpacityMaskFilter_34_" filterUnits="userSpaceOnUse" x="1848" y="-1038.5" width="232" height="4">
						<feColorMatrix  type="matrix" values="1 0 0 0 0  0 1 0 0 0  0 0 1 0 0  0 0 0 1 0"/>
					</filter>
				</defs>
				<mask maskUnits="userSpaceOnUse" x="1848" y="-1038.5" width="232" height="4" id="mask34_outline_ins">
					<g transform="translate(1849 -1037.5)" class="st70">
						<path id="path8_fill" class="st1" d="M2079-1035.5h-230v-1.5l230-0.5V-1035.5z"/>
					</g>
				</mask>
				<g class="st71">
					<g transform="translate(1849 -1037.5)">
						<path id="path9_stroke_2x" class="st3" d="M2079-1035.5v1h1v-1H2079z M1849-1035.5h-1v1h1V-1035.5z M1849-1037l0-1l-1,0v1
							H1849z M2079-1037.5h1v-1l-1,0L2079-1037.5z M2079-1036.5h-230v2h230V-1036.5z M1850-1035.5v-1.5h-2v1.5H1850z M1849-1036
							l230-0.5l0-2l-230,0.5L1849-1036z M2078-1037.5v2h2v-2H2078z"/>
					</g>
				</g>
			</g>
			<g id="Vector_35_" figma:type="vector">
				<defs>
					<filter id="Adobe_OpacityMaskFilter_35_" filterUnits="userSpaceOnUse" x="2077" y="-1038" width="3.9" height="113">
						<feColorMatrix  type="matrix" values="1 0 0 0 0  0 1 0 0 0  0 0 1 0 0  0 0 0 1 0"/>
					</filter>
				</defs>
				<mask maskUnits="userSpaceOnUse" x="2077" y="-1038" width="3.9" height="113" id="mask35_outline_ins">
					<g transform="matrix(6.12323e-17 1 -1 6.12323e-17 2079.94 -1037)" class="st72">
						<path id="path10_fill" class="st1" d="M2078-926v-111h1.9v111H2078z"/>
					</g>
				</mask>
				<g class="st73">
					<g transform="matrix(6.12323e-17 1 -1 6.12323e-17 2079.94 -1037)">
						<path id="path11_stroke_2x" class="st3" d="M2078-926h-1v1h1V-926z M2078-1037v-1h-1v1H2078z M2079.9-1037h1v-1h-1V-1037z
							 M2079.9-926v1h1v-1H2079.9z M2079-926v-111h-2v111H2079z M2078-1036h1.9v-2h-1.9V-1036z M2078.9-1037v111h2v-111H2078.9z
							 M2079.9-927h-1.9v2h1.9V-927z"/>
					</g>
				</g>
			</g>
			<g id="Vector_36_" figma:type="vector">
				<defs>
					<filter id="Adobe_OpacityMaskFilter_36_" filterUnits="userSpaceOnUse" x="1848" y="-1038" width="3.9" height="113">
						<feColorMatrix  type="matrix" values="1 0 0 0 0  0 1 0 0 0  0 0 1 0 0  0 0 0 1 0"/>
					</filter>
				</defs>
				<mask maskUnits="userSpaceOnUse" x="1848" y="-1038" width="3.9" height="113" id="mask36_outline_ins">
					<g transform="matrix(6.12323e-17 1 -1 6.12323e-17 1850.94 -1037)" class="st74">
						<path id="path10_fill_1_" class="st1" d="M1849-926v-111h1.9v111H1849z"/>
					</g>
				</mask>
				<g class="st75">
					<g transform="matrix(6.12323e-17 1 -1 6.12323e-17 1850.94 -1037)">
						<path id="path11_stroke_2x_1_" class="st3" d="M1849-926h-1v1h1V-926z M1849-1037v-1h-1v1H1849z M1850.9-1037h1v-1h-1V-1037z
							 M1850.9-926v1h1v-1H1850.9z M1850-926v-111h-2v111H1850z M1849-1036h1.9v-2h-1.9V-1036z M1849.9-1037v111h2v-111H1849.9z
							 M1850.9-927h-1.9v2h1.9V-927z"/>
					</g>
				</g>
			</g>
			<g id="Vector_37_" figma:type="vector">
				<defs>
					<filter id="Adobe_OpacityMaskFilter_37_" filterUnits="userSpaceOnUse" x="1847.6" y="-1038.6" width="233.4" height="113.8">
						<feColorMatrix  type="matrix" values="1 0 0 0 0  0 1 0 0 0  0 0 1 0 0  0 0 0 1 0"/>
					</filter>
				</defs>
				<mask maskUnits="userSpaceOnUse" x="1847.6" y="-1038.6" width="233.4" height="113.8" id="mask37_outline_ins">
					<g transform="translate(1848.64 -1037.6)" class="st76">
						<path id="path12_fill" class="st1" d="M2080-1037.6h-231.4v111.8H2080V-1037.6z"/>
					</g>
				</mask>
				<g class="st77">
					<g transform="translate(1848.64 -1037.6)">
						<path id="path13_stroke_2x" class="st3" d="M1848.6-1037.6v-1h-1v1H1848.6z M2080-1037.6h1v-1h-1V-1037.6z M2080-925.8v1h1v-1
							H2080z M1848.6-925.8h-1v1h1V-925.8z M1848.6-1036.6H2080v-2h-231.4V-1036.6z M2079-1037.6v111.8h2v-111.8H2079z M2080-926.8
							h-231.4v2H2080V-926.8z M1849.6-925.8v-111.8h-2v111.8H1849.6z"/>
					</g>
				</g>
			</g>
			<g id="Vector_38_" figma:type="vector">
				<defs>
					<filter id="Adobe_OpacityMaskFilter_38_" filterUnits="userSpaceOnUse" x="1587" y="-854" width="509.8" height="16">
						<feColorMatrix  type="matrix" values="1 0 0 0 0  0 1 0 0 0  0 0 1 0 0  0 0 0 1 0"/>
					</filter>
				</defs>
				<mask maskUnits="userSpaceOnUse" x="1587" y="-854" width="509.8" height="16" id="mask38_outline_ins">
					<g transform="translate(1592 -852)" class="st78">
						<path id="path14_fill" class="st1" d="M2080-840h-475.3l-12.6-12h500L2080-840z"/>
					</g>
				</mask>
				<g class="st79">
					<g transform="translate(1592 -852)">
						<path id="path15_stroke_2x" class="st3" d="M2080-840v2h0.8l0.6-0.6L2080-840z M1604.6-840l-1.4,1.5l0.6,0.5h0.8V-840z
							 M1592-852v-2h-5l3.6,3.5L1592-852z M2092-852l1.4,1.4l3.4-3.4h-4.8V-852z M2080-842h-475.3v4H2080V-842z M1606-841.4
							l-12.6-12l-2.8,2.9l12.6,12L1606-841.4z M1592-850h500v-4h-500V-850z M2090.6-853.4l-12,12l2.8,2.8l12-12L2090.6-853.4z"/>
					</g>
				</g>
			</g>
		</g>
	</g>
</g>
<g id="Layer_2">
	<g>
		<text transform="matrix(1 0 0 1 153 104)" class="st80 st81">Y</text>
		<g>
			<text transform="matrix(1 0 0 1 30.189 46.6396)" class="st80 st82">4</text>
			<text transform="matrix(1 0 0 1 93.1997 46.6401)" class="st80 st82">5</text>
			<text transform="matrix(1 0 0 1 147.7744 46.6396)" class="st80 st82">6</text>
			<text transform="matrix(1 0 0 1 216 49)" class="st80 st81">7</text>
			<text transform="matrix(1 0 0 1 30.189 103.561)" class="st80 st82">R</text>
			<text transform="matrix(1 0 0 1 93.1997 103.561)" class="st80 st82">T</text>
			<text transform="matrix(1 0 0 1 208.4487 104)" class="st80 st81">U</text>
			<text transform="matrix(1 0 0 1 34.7954 158.1357)" class="st80 st82">F</text>
			<text transform="matrix(1 0 0 1 93.1997 158.1357)" class="st80 st82">G</text>
			<text transform="matrix(1 0 0 1 158 161)" class="st80 st81">H</text>
			<text transform="matrix(1 0 0 1 216 157)" class="st80 st81">J</text>
			<text transform="matrix(1 0 0 1 35 227)" class="st80 st81">V</text>
			<text transform="matrix(1 0 0 1 101 218)" class="st80 st81">B</text>
			<text transform="matrix(1 0 0 1 151 217)" class="st80 st81">N</text>
			<text transform="matrix(1 0 0 1 212 220)" class="st80 st81">M</text>
		</g>
	</g>
	<text transform="matrix(1 0 0 1 276 135)" class="st80 st83">LOADING SOUNDS</text>
</g>
</svg>
