<svg xmlns="http://www.w3.org/2000/svg" xmlns:xlink="http://www.w3.org/1999/xlink" viewBox="0 0 509.84 273.01"><defs><style>.cls-1{fill:#fff;}.cls-2{mask:url(#mask);}.cls-3{fill:#333;}.cls-4{mask:url(#mask-2);}.cls-5{mask:url(#mask-3);}.cls-6{mask:url(#mask-4);}.cls-7{mask:url(#mask-5);}.cls-8{mask:url(#mask-6);}.cls-9{mask:url(#mask-7);}.cls-10{mask:url(#mask-8);}.cls-11{mask:url(#mask-9);}.cls-12{mask:url(#mask-10);}.cls-13{mask:url(#mask-11);}.cls-14{mask:url(#mask-12);}.cls-15{mask:url(#mask-13);}.cls-16{mask:url(#mask-14);}.cls-17{mask:url(#mask-15);}.cls-18{mask:url(#mask-16);}.cls-19{mask:url(#mask-17);}.cls-20{mask:url(#mask-18);}.cls-21{mask:url(#mask-19);}.cls-22{mask:url(#mask-20);}.cls-23{mask:url(#mask-21);}.cls-24{mask:url(#mask-22);}.cls-25{mask:url(#mask-23);}.cls-26{mask:url(#mask-24);}.cls-27{mask:url(#mask-25);}.cls-28{mask:url(#mask-26);}.cls-29{mask:url(#mask-27);}.cls-30{mask:url(#mask-28);}.cls-31{mask:url(#mask-29);}.cls-32{mask:url(#mask-30);}.cls-33{mask:url(#mask-31);}.cls-34{mask:url(#mask-32);}.cls-35{mask:url(#mask-33);}.cls-36{mask:url(#mask-35);}.cls-37{mask:url(#mask-36);}.cls-38{mask:url(#mask-37);}.cls-39{mask:url(#mask-38);}.cls-40{mask:url(#mask-39);}.cls-41{font-size:31px;}.cls-41,.cls-42,.cls-43{font-family:MyriadPro-Regular, Myriad Pro;}.cls-42{font-size:29.68px;}.cls-43{font-size:24px;}.cls-44{letter-spacing:-0.04em;}.cls-45{letter-spacing:-0.01em;}</style><mask id="mask" x="3.01" y="0" width="504" height="261" maskUnits="userSpaceOnUse"><g transform="translate(5.01 2)"><g id="mask0_outline_ins" data-name="mask0 outline ins"><path id="path0_fill" data-name="path0 fill" class="cls-1" d="M500,0H0V257H500Z"/></g></g></mask><mask id="mask-2" x="16.65" y="13.01" width="55.1" height="55.08" maskUnits="userSpaceOnUse"><g transform="translate(5.01 2)"><g id="mask1_outline_ins" data-name="mask1 outline ins"><path id="path2_fill" data-name="path2 fill" class="cls-1" d="M65.74,12H12.64V65.09h53.1Z"/></g></g></mask><mask id="mask-3" x="15.81" y="66.04" width="56.79" height="3.94" maskUnits="userSpaceOnUse"><g transform="translate(5.01 2)"><g id="mask2_outline_ins" data-name="mask2 outline ins"><path id="path4_fill" data-name="path4 fill" class="cls-1" d="M64.47,67H13.9L12.64,65h53.1Z"/></g></g></mask><mask id="mask-4" x="76.07" y="13.01" width="55.1" height="55.08" maskUnits="userSpaceOnUse"><g transform="translate(5.01 2)"><g id="mask3_outline_ins" data-name="mask3 outline ins"><path id="path2_fill-2" data-name="path2 fill" class="cls-1" d="M125.16,12H72.06V65.09h53.1Z"/></g></g></mask><mask id="mask-5" x="75.23" y="66.04" width="56.79" height="3.94" maskUnits="userSpaceOnUse"><g transform="translate(5.01 2)"><g id="mask4_outline_ins" data-name="mask4 outline ins"><path id="path4_fill-2" data-name="path4 fill" class="cls-1" d="M123.89,67H73.32L72.06,65h53.1Z"/></g></g></mask><mask id="mask-6" x="16.65" y="72.4" width="55.1" height="55.08" maskUnits="userSpaceOnUse"><g transform="translate(5.01 2)"><g id="mask5_outline_ins" data-name="mask5 outline ins"><path id="path2_fill-3" data-name="path2 fill" class="cls-1" d="M65.74,71.4H12.64v53.08h53.1Z"/></g></g></mask><mask id="mask-7" x="15.81" y="125.44" width="56.79" height="3.94" maskUnits="userSpaceOnUse"><g transform="translate(5.01 2)"><g id="mask6_outline_ins" data-name="mask6 outline ins"><path id="path6_fill" data-name="path6 fill" class="cls-1" d="M64.47,126.38H13.9l-1.26-1.94h53.1Z"/></g></g></mask><mask id="mask-8" x="76.07" y="71.77" width="55.1" height="55.08" maskUnits="userSpaceOnUse"><g transform="translate(5.01 2)"><g id="mask7_outline_ins" data-name="mask7 outline ins"><path id="path2_fill-4" data-name="path2 fill" class="cls-1" d="M125.16,70.77H72.06v53.08h53.1Z"/></g></g></mask><mask id="mask-9" x="75.23" y="124.8" width="56.79" height="3.94" maskUnits="userSpaceOnUse"><g transform="translate(5.01 2)"><g id="mask8_outline_ins" data-name="mask8 outline ins"><path id="path6_fill-2" data-name="path6 fill" class="cls-1" d="M123.89,125.74H73.32l-1.26-1.94h53.1Z"/></g></g></mask><mask id="mask-10" x="16.65" y="131.17" width="55.1" height="55.08" maskUnits="userSpaceOnUse"><g transform="translate(5.01 2)"><g id="mask9_outline_ins" data-name="mask9 outline ins"><path id="path2_fill-5" data-name="path2 fill" class="cls-1" d="M65.74,130.17H12.64v53.08h53.1Z"/></g></g></mask><mask id="mask-11" x="15.81" y="184.2" width="56.79" height="3.94" maskUnits="userSpaceOnUse"><g transform="translate(5.01 2)"><g id="mask10_outline_ins" data-name="mask10 outline ins"><path id="path6_fill-3" data-name="path6 fill" class="cls-1" d="M64.47,185.14H13.9l-1.26-1.94h53.1Z"/></g></g></mask><mask id="mask-12" x="76.07" y="131.17" width="55.1" height="55.08" maskUnits="userSpaceOnUse"><g transform="translate(5.01 2)"><g id="mask11_outline_ins" data-name="mask11 outline ins"><path id="path2_fill-6" data-name="path2 fill" class="cls-1" d="M125.16,130.17H72.06v53.08h53.1Z"/></g></g></mask><mask id="mask-13" x="75.23" y="184.2" width="56.79" height="3.94" maskUnits="userSpaceOnUse"><g transform="translate(5.01 2)"><g id="mask12_outline_ins" data-name="mask12 outline ins"><path id="path6_fill-4" data-name="path6 fill" class="cls-1" d="M123.89,185.14H73.32l-1.26-1.94h53.1Z"/></g></g></mask><mask id="mask-14" x="16.65" y="190.56" width="55.1" height="55.08" maskUnits="userSpaceOnUse"><g transform="translate(5.01 2)"><g id="mask13_outline_ins" data-name="mask13 outline ins"><path id="path2_fill-7" data-name="path2 fill" class="cls-1" d="M65.74,189.56H12.64v53.08h53.1Z"/></g></g></mask><mask id="mask-15" x="15.81" y="243.6" width="56.79" height="3.94" maskUnits="userSpaceOnUse"><g transform="translate(5.01 2)"><g id="mask14_outline_ins" data-name="mask14 outline ins"><path id="path6_fill-5" data-name="path6 fill" class="cls-1" d="M64.47,244.54H13.9l-1.26-1.94h53.1Z"/></g></g></mask><mask id="mask-16" x="76.07" y="189.93" width="55.1" height="55.08" maskUnits="userSpaceOnUse"><g transform="translate(5.01 2)"><g id="mask15_outline_ins" data-name="mask15 outline ins"><path id="path2_fill-8" data-name="path2 fill" class="cls-1" d="M125.16,188.93H72.06V242h53.1Z"/></g></g></mask><mask id="mask-17" x="75.23" y="242.97" width="56.79" height="3.94" maskUnits="userSpaceOnUse"><g transform="translate(5.01 2)"><g id="mask16_outline_ins" data-name="mask16 outline ins"><path id="path6_fill-6" data-name="path6 fill" class="cls-1" d="M123.89,243.9H73.32L72.06,242h53.1Z"/></g></g></mask><mask id="mask-18" x="135.49" y="13.01" width="55.1" height="55.08" maskUnits="userSpaceOnUse"><g transform="translate(5.01 2)"><g id="mask17_outline_ins" data-name="mask17 outline ins"><path id="path2_fill-9" data-name="path2 fill" class="cls-1" d="M184.58,12h-53.1V65.09h53.1Z"/></g></g></mask><mask id="mask-19" x="134.65" y="66.04" width="56.79" height="3.94" maskUnits="userSpaceOnUse"><g transform="translate(5.01 2)"><g id="mask18_outline_ins" data-name="mask18 outline ins"><path id="path4_fill-3" data-name="path4 fill" class="cls-1" d="M183.31,67H132.74L131.48,65h53.1Z"/></g></g></mask><mask id="mask-20" x="194.91" y="13.01" width="55.1" height="55.08" maskUnits="userSpaceOnUse"><g transform="translate(5.01 2)"><g id="mask19_outline_ins" data-name="mask19 outline ins"><path id="path2_fill-10" data-name="path2 fill" class="cls-1" d="M244,12H190.9V65.09H244Z"/></g></g></mask><mask id="mask-21" x="194.07" y="66.04" width="56.79" height="3.94" maskUnits="userSpaceOnUse"><g transform="translate(5.01 2)"><g id="mask20_outline_ins" data-name="mask20 outline ins"><path id="path4_fill-4" data-name="path4 fill" class="cls-1" d="M242.73,67H192.16L190.9,65H244Z"/></g></g></mask><mask id="mask-22" x="135.49" y="72.4" width="55.1" height="55.08" maskUnits="userSpaceOnUse"><g transform="translate(5.01 2)"><g id="mask21_outline_ins" data-name="mask21 outline ins"><path id="path2_fill-11" data-name="path2 fill" class="cls-1" d="M184.58,71.4h-53.1v53.08h53.1Z"/></g></g></mask><mask id="mask-23" x="134.65" y="125.44" width="56.79" height="3.94" maskUnits="userSpaceOnUse"><g transform="translate(5.01 2)"><g id="mask22_outline_ins" data-name="mask22 outline ins"><path id="path6_fill-7" data-name="path6 fill" class="cls-1" d="M183.31,126.38H132.74l-1.26-1.94h53.1Z"/></g></g></mask><mask id="mask-24" x="194.91" y="71.77" width="55.1" height="55.08" maskUnits="userSpaceOnUse"><g transform="translate(5.01 2)"><g id="mask23_outline_ins" data-name="mask23 outline ins"><path id="path2_fill-12" data-name="path2 fill" class="cls-1" d="M244,70.77H190.9v53.08H244Z"/></g></g></mask><mask id="mask-25" x="194.07" y="124.8" width="56.79" height="3.94" maskUnits="userSpaceOnUse"><g transform="translate(5.01 2)"><g id="mask24_outline_ins" data-name="mask24 outline ins"><path id="path6_fill-8" data-name="path6 fill" class="cls-1" d="M242.73,125.74H192.16l-1.26-1.94H244Z"/></g></g></mask><mask id="mask-26" x="135.49" y="131.17" width="55.1" height="55.08" maskUnits="userSpaceOnUse"><g transform="translate(5.01 2)"><g id="mask25_outline_ins" data-name="mask25 outline ins"><path id="path2_fill-13" data-name="path2 fill" class="cls-1" d="M184.58,130.17h-53.1v53.08h53.1Z"/></g></g></mask><mask id="mask-27" x="134.65" y="184.2" width="56.79" height="3.94" maskUnits="userSpaceOnUse"><g transform="translate(5.01 2)"><g id="mask26_outline_ins" data-name="mask26 outline ins"><path id="path6_fill-9" data-name="path6 fill" class="cls-1" d="M183.31,185.14H132.74l-1.26-1.94h53.1Z"/></g></g></mask><mask id="mask-28" x="194.91" y="131.17" width="55.1" height="55.08" maskUnits="userSpaceOnUse"><g transform="translate(5.01 2)"><g id="mask27_outline_ins" data-name="mask27 outline ins"><path id="path2_fill-14" data-name="path2 fill" class="cls-1" d="M244,130.17H190.9v53.08H244Z"/></g></g></mask><mask id="mask-29" x="194.07" y="184.2" width="56.79" height="3.94" maskUnits="userSpaceOnUse"><g transform="translate(5.01 2)"><g id="mask28_outline_ins" data-name="mask28 outline ins"><path id="path6_fill-10" data-name="path6 fill" class="cls-1" d="M242.73,185.14H192.16l-1.26-1.94H244Z"/></g></g></mask><mask id="mask-30" x="135.49" y="190.56" width="55.1" height="55.08" maskUnits="userSpaceOnUse"><g transform="translate(5.01 2)"><g id="mask29_outline_ins" data-name="mask29 outline ins"><path id="path2_fill-15" data-name="path2 fill" class="cls-1" d="M184.58,189.56h-53.1v53.08h53.1Z"/></g></g></mask><mask id="mask-31" x="134.65" y="243.6" width="56.79" height="3.94" maskUnits="userSpaceOnUse"><g transform="translate(5.01 2)"><g id="mask30_outline_ins" data-name="mask30 outline ins"><path id="path6_fill-11" data-name="path6 fill" class="cls-1" d="M183.31,244.54H132.74l-1.26-1.94h53.1Z"/></g></g></mask><mask id="mask-32" x="194.91" y="189.93" width="55.1" height="55.08" maskUnits="userSpaceOnUse"><g transform="translate(5.01 2)"><g id="mask31_outline_ins" data-name="mask31 outline ins"><path id="path2_fill-16" data-name="path2 fill" class="cls-1" d="M244,188.93H190.9V242H244Z"/></g></g></mask><mask id="mask-33" x="194.07" y="242.97" width="56.79" height="3.94" maskUnits="userSpaceOnUse"><g transform="translate(5.01 2)"><g id="mask32_outline_ins" data-name="mask32 outline ins"><path id="path6_fill-12" data-name="path6 fill" class="cls-1" d="M242.73,243.9H192.16L190.9,242H244Z"/></g></g></mask><mask id="mask-35" x="261.01" y="72.5" width="232" height="4" maskUnits="userSpaceOnUse"><g transform="translate(5.01 2)"><g id="mask34_outline_ins" data-name="mask34 outline ins"><path id="path8_fill" data-name="path8 fill" class="cls-1" d="M487,73.5H257V72l230-.5Z"/></g></g></mask><mask id="mask-36" x="490.01" y="73" width="3.94" height="113" maskUnits="userSpaceOnUse"><g transform="translate(5.01 2)"><g id="mask35_outline_ins" data-name="mask35 outline ins"><path id="path10_fill" data-name="path10 fill" class="cls-1" d="M486,183V72h1.94V183Z"/></g></g></mask><mask id="mask-37" x="261.01" y="73" width="3.94" height="113" maskUnits="userSpaceOnUse"><g transform="translate(5.01 2)"><g id="mask36_outline_ins" data-name="mask36 outline ins"><path id="path10_fill-2" data-name="path10 fill" class="cls-1" d="M257,183V72h1.94V183Z"/></g></g></mask><mask id="mask-38" x="260.65" y="72.4" width="233.35" height="113.84" maskUnits="userSpaceOnUse"><g transform="translate(5.01 2)"><g id="mask37_outline_ins" data-name="mask37 outline ins"><path id="path12_fill" data-name="path12 fill" class="cls-1" d="M488,71.4H256.64V183.24H488Z"/></g></g></mask><mask id="mask-39" x="0" y="257" width="509.84" height="16.01" maskUnits="userSpaceOnUse"><g transform="translate(5.01 2)"><g id="mask38_outline_ins" data-name="mask38 outline ins"><path id="path14_fill" data-name="path14 fill" class="cls-1" d="M488,269H12.64L0,257H500Z"/></g></g></mask></defs><title>pls2</title><g id="Layer_1" data-name="Layer 1"><g id="Canvas"><g id="just_lines" data-name="just lines"><g id="Vector"><g class="cls-2"><path id="path1_stroke_2x" data-name="path1 stroke 2x" class="cls-3" d="M0,0V-2H-2V0ZM500,0h2V-2h-2Zm0,257v2h2v-2ZM0,257H-2v2H0ZM0,2H500V-2H0ZM498,0V257h4V0Zm2,255H0v4H500ZM2,257V0H-2V257Z" transform="translate(5.01 2)"/></g></g><g id="Vector-2" data-name="Vector"><g class="cls-4"><path id="path3_stroke_2x" data-name="path3 stroke 2x" class="cls-3" d="M12.64,12V11h-1v1Zm53.1,0h1V11h-1Zm0,53.08v1h1v-1Zm-53.1,0h-1v1h1Zm0-52.08h53.1V11H12.64Zm52.1-1V65.09h2V12Zm1,52.08H12.64v2h53.1Zm-52.1,1V12h-2V65.09Z" transform="translate(5.01 2)"/></g></g><g id="Vector-3" data-name="Vector"><g class="cls-5"><path id="path5_stroke_2x" data-name="path5 stroke 2x" class="cls-3" d="M64.47,67v1H65l.3-.45ZM13.9,67l-.84.55.3.45h.54ZM12.64,65V64H10.79l1,1.55Zm53.1,0,.84.55,1-1.55H65.74ZM64.47,66H13.9v2H64.47Zm-49.73.45-1.26-1.94L11.8,65.59l1.26,1.94ZM12.64,66h53.1V64H12.64ZM64.9,64.49l-1.26,1.94,1.68,1.09,1.26-1.94Z" transform="translate(5.01 2)"/></g></g><g id="Vector-4" data-name="Vector"><g class="cls-6"><path id="path3_stroke_2x-2" data-name="path3 stroke 2x" class="cls-3" d="M72.06,12V11h-1v1Zm53.1,0h1V11h-1Zm0,53.08v1h1v-1Zm-53.1,0h-1v1h1Zm0-52.08h53.1V11H72.06Zm52.1-1V65.09h2V12Zm1,52.08H72.06v2h53.1Zm-52.1,1V12h-2V65.09Z" transform="translate(5.01 2)"/></g></g><g id="Vector-5" data-name="Vector"><g class="cls-7"><path id="path5_stroke_2x-2" data-name="path5 stroke 2x" class="cls-3" d="M123.89,67v1h.54l.3-.45ZM73.32,67l-.84.55.3.45h.54ZM72.06,65V64H70.21l1,1.55Zm53.1,0,.84.55L127,64h-1.85Zm-1.26.94H73.32v2h50.57Zm-49.73.45L72.9,64.49l-1.68,1.09,1.26,1.94ZM72.06,66h53.1V64H72.06Zm52.26-1.55-1.26,1.94,1.68,1.09L126,65.59Z" transform="translate(5.01 2)"/></g></g><g id="Vector-6" data-name="Vector"><g class="cls-8"><path id="path3_stroke_2x-3" data-name="path3 stroke 2x" class="cls-3" d="M12.64,71.4v-1h-1v1Zm53.1,0h1v-1h-1Zm0,53.08v1h1v-1Zm-53.1,0h-1v1h1Zm0-52.08h53.1v-2H12.64Zm52.1-1v53.08h2V71.4Zm1,52.08H12.64v2h53.1Zm-52.1,1V71.4h-2v53.08Z" transform="translate(5.01 2)"/></g></g><g id="Vector-7" data-name="Vector"><g class="cls-9"><path id="path7_stroke_2x" data-name="path7 stroke 2x" class="cls-3" d="M64.47,126.38v1H65l.3-.45Zm-50.57,0-.84.55.3.45h.54Zm-1.26-1.94v-1H10.79l1,1.55Zm53.1,0,.84.55,1-1.55H65.74Zm-1.26.94H13.9v2H64.47Zm-49.73.45-1.26-1.94L11.8,125l1.26,1.94Zm-2.1-.39h53.1v-2H12.64Zm52.26-1.55-1.26,1.94,1.68,1.09L66.58,125Z" transform="translate(5.01 2)"/></g></g><g id="Vector-8" data-name="Vector"><g class="cls-10"><path id="path3_stroke_2x-4" data-name="path3 stroke 2x" class="cls-3" d="M72.06,70.77v-1h-1v1Zm53.1,0h1v-1h-1Zm0,53.08v1h1v-1Zm-53.1,0h-1v1h1Zm0-52.08h53.1v-2H72.06Zm52.1-1v53.08h2V70.77Zm1,52.08H72.06v2h53.1Zm-52.1,1V70.77h-2v53.08Z" transform="translate(5.01 2)"/></g></g><g id="Vector-9" data-name="Vector"><g class="cls-11"><path id="path7_stroke_2x-2" data-name="path7 stroke 2x" class="cls-3" d="M123.89,125.74v1h.54l.3-.45Zm-50.57,0-.84.55.3.45h.54Zm-1.26-1.94v-1H70.21l1,1.55Zm53.1,0,.84.55,1-1.55h-1.85Zm-1.26.94H73.32v2h50.57Zm-49.73.45-1.26-1.94-1.68,1.09,1.26,1.94Zm-2.1-.39h53.1v-2H72.06Zm52.26-1.55-1.26,1.94,1.68,1.09,1.26-1.94Z" transform="translate(5.01 2)"/></g></g><g id="Vector-10" data-name="Vector"><g class="cls-12"><path id="path3_stroke_2x-5" data-name="path3 stroke 2x" class="cls-3" d="M12.64,130.17v-1h-1v1Zm53.1,0h1v-1h-1Zm0,53.08v1h1v-1Zm-53.1,0h-1v1h1Zm0-52.08h53.1v-2H12.64Zm52.1-1v53.08h2V130.17Zm1,52.08H12.64v2h53.1Zm-52.1,1V130.17h-2v53.08Z" transform="translate(5.01 2)"/></g></g><g id="Vector-11" data-name="Vector"><g class="cls-13"><path id="path7_stroke_2x-3" data-name="path7 stroke 2x" class="cls-3" d="M64.47,185.14v1H65l.3-.45Zm-50.57,0-.84.55.3.45h.54Zm-1.26-1.94v-1H10.79l1,1.55Zm53.1,0,.84.55,1-1.55H65.74Zm-1.26.94H13.9v2H64.47Zm-49.73.45-1.26-1.94-1.68,1.09,1.26,1.94Zm-2.1-.39h53.1v-2H12.64Zm52.26-1.55-1.26,1.94,1.68,1.09,1.26-1.94Z" transform="translate(5.01 2)"/></g></g><g id="Vector-12" data-name="Vector"><g class="cls-14"><path id="path3_stroke_2x-6" data-name="path3 stroke 2x" class="cls-3" d="M72.06,130.17v-1h-1v1Zm53.1,0h1v-1h-1Zm0,53.08v1h1v-1Zm-53.1,0h-1v1h1Zm0-52.08h53.1v-2H72.06Zm52.1-1v53.08h2V130.17Zm1,52.08H72.06v2h53.1Zm-52.1,1V130.17h-2v53.08Z" transform="translate(5.01 2)"/></g></g><g id="Vector-13" data-name="Vector"><g class="cls-15"><path id="path7_stroke_2x-4" data-name="path7 stroke 2x" class="cls-3" d="M123.89,185.14v1h.54l.3-.45Zm-50.57,0-.84.55.3.45h.54Zm-1.26-1.94v-1H70.21l1,1.55Zm53.1,0,.84.55,1-1.55h-1.85Zm-1.26.94H73.32v2h50.57Zm-49.73.45-1.26-1.94-1.68,1.09,1.26,1.94Zm-2.1-.39h53.1v-2H72.06Zm52.26-1.55-1.26,1.94,1.68,1.09,1.26-1.94Z" transform="translate(5.01 2)"/></g></g><g id="Vector-14" data-name="Vector"><g class="cls-16"><path id="path3_stroke_2x-7" data-name="path3 stroke 2x" class="cls-3" d="M12.64,189.56v-1h-1v1Zm53.1,0h1v-1h-1Zm0,53.08v1h1v-1Zm-53.1,0h-1v1h1Zm0-52.08h53.1v-2H12.64Zm52.1-1v53.08h2V189.56Zm1,52.08H12.64v2h53.1Zm-52.1,1V189.56h-2v53.08Z" transform="translate(5.01 2)"/></g></g><g id="Vector-15" data-name="Vector"><g class="cls-17"><path id="path7_stroke_2x-5" data-name="path7 stroke 2x" class="cls-3" d="M64.47,244.54v1H65l.3-.45Zm-50.57,0-.84.55.3.45h.54Zm-1.26-1.94v-1H10.79l1,1.55Zm53.1,0,.84.55,1-1.55H65.74Zm-1.26.94H13.9v2H64.47ZM14.74,244l-1.26-1.94-1.68,1.09,1.26,1.94Zm-2.1-.39h53.1v-2H12.64Zm52.26-1.55L63.64,244l1.68,1.09,1.26-1.94Z" transform="translate(5.01 2)"/></g></g><g id="Vector-16" data-name="Vector"><g class="cls-18"><path id="path3_stroke_2x-8" data-name="path3 stroke 2x" class="cls-3" d="M72.06,188.93v-1h-1v1Zm53.1,0h1v-1h-1Zm0,53.08v1h1v-1Zm-53.1,0h-1v1h1Zm0-52.08h53.1v-2H72.06Zm52.1-1V242h2V188.93Zm1,52.08H72.06v2h53.1Zm-52.1,1V188.93h-2V242Z" transform="translate(5.01 2)"/></g></g><g id="Vector-17" data-name="Vector"><g class="cls-19"><path id="path7_stroke_2x-6" data-name="path7 stroke 2x" class="cls-3" d="M123.89,243.9v1h.54l.3-.45Zm-50.57,0-.84.55.3.45h.54ZM72.06,242v-1H70.21l1,1.55Zm53.1,0,.84.55,1-1.55h-1.85Zm-1.26.94H73.32v2h50.57Zm-49.73.45-1.26-1.94-1.68,1.09,1.26,1.94Zm-2.1-.39h53.1v-2H72.06Zm52.26-1.55-1.26,1.94,1.68,1.09,1.26-1.94Z" transform="translate(5.01 2)"/></g></g><g id="Vector-18" data-name="Vector"><g class="cls-20"><path id="path3_stroke_2x-9" data-name="path3 stroke 2x" class="cls-3" d="M131.48,12V11h-1v1Zm53.1,0h1V11h-1Zm0,53.08v1h1v-1Zm-53.1,0h-1v1h1Zm0-52.08h53.1V11h-53.1Zm52.1-1V65.09h2V12Zm1,52.08h-53.1v2h53.1Zm-52.1,1V12h-2V65.09Z" transform="translate(5.01 2)"/></g></g><g id="Vector-19" data-name="Vector"><g class="cls-21"><path id="path5_stroke_2x-3" data-name="path5 stroke 2x" class="cls-3" d="M183.31,67v1h.54l.3-.45Zm-50.57,0-.84.55.3.45h.54ZM131.48,65V64h-1.85l1,1.55Zm53.1,0,.84.55,1-1.55h-1.85Zm-1.26.94H132.74v2h50.57Zm-49.73.45-1.26-1.94-1.68,1.09,1.26,1.94Zm-2.1-.39h53.1V64h-53.1Zm52.26-1.55-1.26,1.94,1.68,1.09,1.26-1.94Z" transform="translate(5.01 2)"/></g></g><g id="Vector-20" data-name="Vector"><g class="cls-22"><path id="path3_stroke_2x-10" data-name="path3 stroke 2x" class="cls-3" d="M190.9,12V11h-1v1ZM244,12h1V11h-1Zm0,53.08v1h1v-1Zm-53.1,0h-1v1h1Zm0-52.08H244V11H190.9ZM243,12V65.09h2V12Zm1,52.08H190.9v2H244Zm-52.1,1V12h-2V65.09Z" transform="translate(5.01 2)"/></g></g><g id="Vector-21" data-name="Vector"><g class="cls-23"><path id="path5_stroke_2x-4" data-name="path5 stroke 2x" class="cls-3" d="M242.73,67v1h.54l.3-.45Zm-50.57,0-.84.55.3.45h.54ZM190.9,65V64h-1.85l1,1.55ZM244,65l.84.55,1-1.55H244Zm-1.26.94H192.16v2h50.57ZM193,66.43l-1.26-1.94-1.68,1.09,1.26,1.94ZM190.9,66H244V64H190.9Zm52.26-1.55-1.26,1.94,1.68,1.09,1.26-1.94Z" transform="translate(5.01 2)"/></g></g><g id="Vector-22" data-name="Vector"><g class="cls-24"><path id="path3_stroke_2x-11" data-name="path3 stroke 2x" class="cls-3" d="M131.48,71.4v-1h-1v1Zm53.1,0h1v-1h-1Zm0,53.08v1h1v-1Zm-53.1,0h-1v1h1Zm0-52.08h53.1v-2h-53.1Zm52.1-1v53.08h2V71.4Zm1,52.08h-53.1v2h53.1Zm-52.1,1V71.4h-2v53.08Z" transform="translate(5.01 2)"/></g></g><g id="Vector-23" data-name="Vector"><g class="cls-25"><path id="path7_stroke_2x-7" data-name="path7 stroke 2x" class="cls-3" d="M183.31,126.38v1h.54l.3-.45Zm-50.57,0-.84.55.3.45h.54Zm-1.26-1.94v-1h-1.85l1,1.55Zm53.1,0,.84.55,1-1.55h-1.85Zm-1.26.94H132.74v2h50.57Zm-49.73.45-1.26-1.94L130.64,125l1.26,1.94Zm-2.1-.39h53.1v-2h-53.1Zm52.26-1.55-1.26,1.94,1.68,1.09,1.26-1.94Z" transform="translate(5.01 2)"/></g></g><g id="Vector-24" data-name="Vector"><g class="cls-26"><path id="path3_stroke_2x-12" data-name="path3 stroke 2x" class="cls-3" d="M190.9,70.77v-1h-1v1Zm53.1,0h1v-1h-1Zm0,53.08v1h1v-1Zm-53.1,0h-1v1h1Zm0-52.08H244v-2H190.9Zm52.1-1v53.08h2V70.77Zm1,52.08H190.9v2H244Zm-52.1,1V70.77h-2v53.08Z" transform="translate(5.01 2)"/></g></g><g id="Vector-25" data-name="Vector"><g class="cls-27"><path id="path7_stroke_2x-8" data-name="path7 stroke 2x" class="cls-3" d="M242.73,125.74v1h.54l.3-.45Zm-50.57,0-.84.55.3.45h.54Zm-1.26-1.94v-1h-1.85l1,1.55Zm53.1,0,.84.55,1-1.55H244Zm-1.26.94H192.16v2h50.57ZM193,125.2l-1.26-1.94-1.68,1.09,1.26,1.94Zm-2.1-.39H244v-2H190.9Zm52.26-1.55-1.26,1.94,1.68,1.09,1.26-1.94Z" transform="translate(5.01 2)"/></g></g><g id="Vector-26" data-name="Vector"><g class="cls-28"><path id="path3_stroke_2x-13" data-name="path3 stroke 2x" class="cls-3" d="M131.48,130.17v-1h-1v1Zm53.1,0h1v-1h-1Zm0,53.08v1h1v-1Zm-53.1,0h-1v1h1Zm0-52.08h53.1v-2h-53.1Zm52.1-1v53.08h2V130.17Zm1,52.08h-53.1v2h53.1Zm-52.1,1V130.17h-2v53.08Z" transform="translate(5.01 2)"/></g></g><g id="Vector-27" data-name="Vector"><g class="cls-29"><path id="path7_stroke_2x-9" data-name="path7 stroke 2x" class="cls-3" d="M183.31,185.14v1h.54l.3-.45Zm-50.57,0-.84.55.3.45h.54Zm-1.26-1.94v-1h-1.85l1,1.55Zm53.1,0,.84.55,1-1.55h-1.85Zm-1.26.94H132.74v2h50.57Zm-49.73.45-1.26-1.94-1.68,1.09,1.26,1.94Zm-2.1-.39h53.1v-2h-53.1Zm52.26-1.55-1.26,1.94,1.68,1.09,1.26-1.94Z" transform="translate(5.01 2)"/></g></g><g id="Vector-28" data-name="Vector"><g class="cls-30"><path id="path3_stroke_2x-14" data-name="path3 stroke 2x" class="cls-3" d="M190.9,130.17v-1h-1v1Zm53.1,0h1v-1h-1Zm0,53.08v1h1v-1Zm-53.1,0h-1v1h1Zm0-52.08H244v-2H190.9Zm52.1-1v53.08h2V130.17Zm1,52.08H190.9v2H244Zm-52.1,1V130.17h-2v53.08Z" transform="translate(5.01 2)"/></g></g><g id="Vector-29" data-name="Vector"><g class="cls-31"><path id="path7_stroke_2x-10" data-name="path7 stroke 2x" class="cls-3" d="M242.73,185.14v1h.54l.3-.45Zm-50.57,0-.84.55.3.45h.54Zm-1.26-1.94v-1h-1.85l1,1.55Zm53.1,0,.84.55,1-1.55H244Zm-1.26.94H192.16v2h50.57Zm-49.73.45-1.26-1.94-1.68,1.09,1.26,1.94Zm-2.1-.39H244v-2H190.9Zm52.26-1.55-1.26,1.94,1.68,1.09,1.26-1.94Z" transform="translate(5.01 2)"/></g></g><g id="Vector-30" data-name="Vector"><g class="cls-32"><path id="path3_stroke_2x-15" data-name="path3 stroke 2x" class="cls-3" d="M131.48,189.56v-1h-1v1Zm53.1,0h1v-1h-1Zm0,53.08v1h1v-1Zm-53.1,0h-1v1h1Zm0-52.08h53.1v-2h-53.1Zm52.1-1v53.08h2V189.56Zm1,52.08h-53.1v2h53.1Zm-52.1,1V189.56h-2v53.08Z" transform="translate(5.01 2)"/></g></g><g id="Vector-31" data-name="Vector"><g class="cls-33"><path id="path7_stroke_2x-11" data-name="path7 stroke 2x" class="cls-3" d="M183.31,244.54v1h.54l.3-.45Zm-50.57,0-.84.55.3.45h.54Zm-1.26-1.94v-1h-1.85l1,1.55Zm53.1,0,.84.55,1-1.55h-1.85Zm-1.26.94H132.74v2h50.57Zm-49.73.45-1.26-1.94-1.68,1.09,1.26,1.94Zm-2.1-.39h53.1v-2h-53.1Zm52.26-1.55L182.48,244l1.68,1.09,1.26-1.94Z" transform="translate(5.01 2)"/></g></g><g id="Vector-32" data-name="Vector"><g class="cls-34"><path id="path3_stroke_2x-16" data-name="path3 stroke 2x" class="cls-3" d="M190.9,188.93v-1h-1v1Zm53.1,0h1v-1h-1ZM244,242v1h1v-1Zm-53.1,0h-1v1h1Zm0-52.08H244v-2H190.9Zm52.1-1V242h2V188.93ZM244,241H190.9v2H244Zm-52.1,1V188.93h-2V242Z" transform="translate(5.01 2)"/></g></g><g id="Vector-33" data-name="Vector"><g class="cls-35"><path id="path7_stroke_2x-12" data-name="path7 stroke 2x" class="cls-3" d="M242.73,243.9v1h.54l.3-.45Zm-50.57,0-.84.55.3.45h.54ZM190.9,242v-1h-1.85l1,1.55Zm53.1,0,.84.55,1-1.55H244Zm-1.26.94H192.16v2h50.57Zm-49.73.45-1.26-1.94-1.68,1.09,1.26,1.94Zm-2.1-.39H244v-2H190.9Zm52.26-1.55-1.26,1.94,1.68,1.09,1.26-1.94Z" transform="translate(5.01 2)"/></g></g><g id="Vector-34" data-name="Vector"><g class="cls-35"><path id="path7_stroke_2x-13" data-name="path7 stroke 2x" class="cls-3" d="M242.73,243.9v1h.54l.3-.45Zm-50.57,0-.84.55.3.45h.54ZM190.9,242v-1h-1.85l1,1.55Zm53.1,0,.84.55,1-1.55H244Zm-1.26.94H192.16v2h50.57Zm-49.73.45-1.26-1.94-1.68,1.09,1.26,1.94Zm-2.1-.39H244v-2H190.9Zm52.26-1.55-1.26,1.94,1.68,1.09,1.26-1.94Z" transform="translate(5.01 2)"/></g></g><g id="Vector-35" data-name="Vector"><g class="cls-36"><path id="path9_stroke_2x" data-name="path9 stroke 2x" class="cls-3" d="M487,73.5v1h1v-1Zm-230,0h-1v1h1Zm0-1.5V71h-1v1Zm230-.5h1v-1h-1Zm0,1H257v2H487Zm-229,1V72h-2v1.5Zm-1-.5,230-.5v-2L257,71Zm229-1.5v2h2v-2Z" transform="translate(5.01 2)"/></g></g><g id="Vector-36" data-name="Vector"><g class="cls-37"><path id="path11_stroke_2x" data-name="path11 stroke 2x" class="cls-3" d="M486,183h-1v1h1Zm0-111V71h-1v1Zm1.94,0h1V71h-1Zm0,111v1h1v-1Zm-.94,0V72h-2V183ZM486,73h1.94V71H486Zm.94-1V183h2V72Zm1,110H486v2h1.94Z" transform="translate(5.01 2)"/></g></g><g id="Vector-37" data-name="Vector"><g class="cls-38"><path id="path11_stroke_2x-2" data-name="path11 stroke 2x" class="cls-3" d="M257,183h-1v1h1Zm0-111V71h-1v1Zm1.94,0h1V71h-1Zm0,111v1h1v-1Zm-.94,0V72h-2V183ZM257,73h1.94V71H257Zm.94-1V183h2V72Zm1,110H257v2h1.94Z" transform="translate(5.01 2)"/></g></g><g id="Vector-38" data-name="Vector"><g class="cls-39"><path id="path13_stroke_2x" data-name="path13 stroke 2x" class="cls-3" d="M256.64,71.4v-1h-1v1ZM488,71.4h1v-1h-1Zm0,111.84v1h1v-1Zm-231.35,0h-1v1h1Zm0-110.84H488v-2H256.64ZM487,71.4V183.24h2V71.4Zm1,110.84H256.64v2H488Zm-230.35,1V71.4h-2V183.24Z" transform="translate(5.01 2)"/></g></g><g id="Vector-39" data-name="Vector"><g class="cls-40"><path id="path15_stroke_2x" data-name="path15 stroke 2x" class="cls-3" d="M488,269v2h.83l.59-.59ZM12.64,269l-1.38,1.45.58.55h.8ZM0,257v-2H-5l3.63,3.45Zm500,0,1.41,1.41,3.42-3.41H500Zm-12,10H12.64v4H488Zm-474,.55-12.64-12-2.75,2.9,12.64,12ZM0,259H500v-4H0Zm498.59-3.41-12,12,2.83,2.83,12-12Z" transform="translate(5.01 2)"/></g></g></g></g></g><g id="Layer_2" data-name="Layer 2"><text class="cls-41" transform="translate(158.01 106)">Y</text><text class="cls-42" transform="translate(35.2 48.64)">4</text><text class="cls-42" transform="translate(98.21 48.64)">5</text><text class="cls-42" transform="translate(152.78 48.64)">6</text><text class="cls-41" transform="translate(221.01 51)">7</text><text class="cls-42" transform="translate(35.2 105.56)">R</text><text class="cls-42" transform="translate(98.21 105.56)">T</text><text class="cls-41" transform="translate(213.46 106)">U</text><text class="cls-42" transform="translate(39.81 160.14)">F</text><text class="cls-42" transform="translate(98.21 160.14)">G</text><text class="cls-41" transform="translate(163.01 163)">H</text><text class="cls-41" transform="translate(221.01 159)">J</text><text class="cls-41" transform="translate(40.01 229)">V</text><text class="cls-41" transform="translate(106.01 220)">B</text><text class="cls-41" transform="translate(156.01 219)">N</text><text class="cls-41" transform="translate(217.01 222)">M</text><text class="cls-43" transform="translate(281.01 137)"><tspan class="cls-44">L</tspan><tspan class="cls-45" x="10.39" y="0">O</tspan><tspan x="26.59" y="0">ADING SOUNDS</tspan></text></g></svg>