<svg xmlns="http://www.w3.org/2000/svg" viewBox="0 0 406 534.5"><defs><style>.cls-1{fill:#ccc;}.cls-2{fill:#f2f2f2;}.cls-3{fill:#ff7bac;}.cls-4{fill:#fab3a9;}.cls-5{fill:#56e39f;}.cls-6{fill:#43adf9;}.cls-7{fill:#666;}.cls-8{fill:#4d4d4d;}.cls-9{font-size:56px;fill:#e6e6e6;font-family:Roboto-Black, Roboto;}.cls-10{letter-spacing:-0.01em;}.cls-11{letter-spacing:-0.01em;}.cls-12{letter-spacing:-0.01em;}</style></defs><title>vertical_keybored</title><g id="Layer_1" data-name="Layer 1"><rect class="cls-1" width="406" height="515.5"/><rect class="cls-2" x="20" y="128.5" width="84" height="84"/><polygon class="cls-3" points="102 215.5 22 215.5 20 212.43 104 212.43 102 215.5"/><rect class="cls-2" x="114" y="128.5" width="84" height="84"/><polygon class="cls-3" points="196 215.5 116 215.5 114 212.43 198 212.43 196 215.5"/><rect class="cls-2" x="20" y="222.5" width="84" height="84"/><polygon class="cls-4" points="102 309.5 22 309.5 20 306.43 104 306.43 102 309.5"/><rect class="cls-2" x="114" y="221.5" width="84" height="84"/><polygon class="cls-4" points="196 308.5 116 308.5 114 305.43 198 305.43 196 308.5"/><rect class="cls-2" x="20" y="315.5" width="84" height="84"/><polygon class="cls-5" points="102 402.5 22 402.5 20 399.43 104 399.43 102 402.5"/><rect class="cls-2" x="114" y="315.5" width="84" height="84"/><polygon class="cls-5" points="196 402.5 116 402.5 114 399.43 198 399.43 196 402.5"/><rect class="cls-2" x="20" y="409.5" width="84" height="84"/><polygon class="cls-6" points="102 496.5 22 496.5 20 493.43 104 493.43 102 496.5"/><rect class="cls-2" x="114" y="408.5" width="84" height="84"/><polygon class="cls-6" points="196 495.5 116 495.5 114 492.43 198 492.43 196 495.5"/><rect class="cls-2" x="208" y="128.5" width="84" height="84"/><polygon class="cls-3" points="290 215.5 210 215.5 208 212.43 292 212.43 290 215.5"/><rect class="cls-2" x="302" y="128.5" width="84" height="84"/><polygon class="cls-3" points="384 215.5 304 215.5 302 212.43 386 212.43 384 215.5"/><rect class="cls-2" x="208" y="222.5" width="84" height="84"/><polygon class="cls-4" points="290 309.5 210 309.5 208 306.43 292 306.43 290 309.5"/><rect class="cls-2" x="302" y="221.5" width="84" height="84"/><polygon class="cls-4" points="384 308.5 304 308.5 302 305.43 386 305.43 384 308.5"/><rect class="cls-2" x="208" y="315.5" width="84" height="84"/><polygon class="cls-5" points="290 402.5 210 402.5 208 399.43 292 399.43 290 402.5"/><rect class="cls-2" x="302" y="315.5" width="84" height="84"/><polygon class="cls-5" points="384 402.5 304 402.5 302 399.43 386 399.43 384 402.5"/><rect class="cls-2" x="208" y="409.5" width="84" height="84"/><polygon class="cls-6" points="290 496.5 210 496.5 208 493.43 292 493.43 290 496.5"/><rect class="cls-2" x="302" y="408.5" width="84" height="84"/><polygon class="cls-6" points="384 495.5 304 495.5 302 492.43 386 492.43 384 495.5"/><rect class="cls-7" x="20" y="19" width="366" height="99"/><polygon class="cls-8" points="396.25 534.5 10.27 534.5 0 515.5 406 515.5 396.25 534.5"/><text class="cls-9" transform="translate(86.84 84.87)"><tspan class="cls-10">k</tspan><tspan class="cls-11" x="30.05" y="0">e</tspan><tspan x="59.31" y="0">ybo</tspan><tspan class="cls-12" x="151.05" y="0">r</tspan><tspan x="171.23" y="0">ed</tspan></text><rect class="cls-8" x="20" y="19" width="366" height="4"/><rect class="cls-8" x="430.5" y="191.5" width="99" height="4" transform="translate(-171.5 548.5) rotate(-90)"/><rect class="cls-8" x="792.5" y="191.5" width="99" height="4" transform="translate(190.5 910.5) rotate(-90)"/></g><g id="M"><rect class="cls-6" x="302" y="408.4" width="84" height="84"/></g><g id="N"><rect class="cls-6" x="208" y="409.4" width="84" height="84"/></g><g id="B"><rect class="cls-6" x="114" y="408.4" width="84" height="84"/></g><g id="V"><rect class="cls-6" x="20" y="409.4" width="84" height="84"/></g><g id="J"><rect class="cls-5" x="302" y="315.4" width="84" height="84"/></g><g id="H"><rect class="cls-5" x="208" y="315.4" width="84" height="84"/></g><g id="G"><rect class="cls-5" x="114" y="315.4" width="84" height="84"/></g><g id="F"><rect class="cls-5" x="20" y="315.4" width="84" height="84"/></g><g id="U"><rect class="cls-4" x="302" y="221.4" width="84" height="84"/></g><g id="Y"><rect class="cls-4" x="208" y="222.4" width="84" height="84"/></g><g id="T"><rect class="cls-4" x="114" y="221.4" width="84" height="84"/></g><g id="R"><rect class="cls-4" x="20" y="222.4" width="84" height="84"/></g><g id="_7" data-name="7"><rect class="cls-3" x="302" y="128.4" width="84" height="84"/></g><g id="_6" data-name="6"><rect class="cls-3" x="208" y="128.4" width="84" height="84"/></g><g id="_5" data-name="5"><rect class="cls-3" x="114" y="128.4" width="84" height="84"/></g><g id="_4" data-name="4"><rect class="cls-3" x="20" y="128.4" width="84" height="84"/></g></svg>