<svg id="Layer_1" data-name="Layer 1" xmlns="http://www.w3.org/2000/svg" viewBox="0 0 500 477.78"><defs><style>.cls-1{fill:#ed1e79;}</style></defs><title>linkedinpink</title><path id="LinkedIn" class="cls-1" d="M500,304V488.89H392.83V316.42c0-43.33-15.5-72.9-54.29-72.9-29.61,0-47.23,19.93-55,39.2-2.83,6.89-3.55,16.48-3.55,26.13v180H172.8s1.44-292.11,0-322.38H280v45.7c-.22.34-.5.71-.7,1h.7v-1c14.24-21.93,39.68-53.27,96.6-53.27C447.13,158.94,500,205,500,304ZM60.66,11.11C24,11.11,0,35.17,0,66.8c0,30.94,23.29,55.73,59.24,55.73H60c37.38,0,60.63-24.78,60.63-55.73C119.88,35.17,97.34,11.11,60.66,11.11ZM6.37,488.89H113.53V166.51H6.37Z" transform="translate(0 -11.11)"/></svg>