<svg id="Layer_1" data-name="Layer 1" xmlns="http://www.w3.org/2000/svg" viewBox="0 0 500.51 423.61"><defs><style>.cls-1{fill:#ed1e79;}</style></defs><title>mediumpink</title><path class="cls-1" d="M498.72,116.5a1.76,1.76,0,0,0-.29-.23l-.17-.09-151-75.49a15.86,15.86,0,0,0-3.18-1.14,16.74,16.74,0,0,0-4.15-.56,17.28,17.28,0,0,0-14.65,8L238.37,188.21,347.46,365.47,499.19,118.91A1.84,1.84,0,0,0,498.72,116.5Z" transform="translate(0.25 -38.99)"/><polygon class="cls-1" points="190.75 117.05 190.75 277.83 333.67 349.29 190.75 117.05"/><path class="cls-1" d="M354.89,399l117.64,58.82c15.31,7.65,27.72,2.3,27.72-12V162.8Z" transform="translate(0.25 -38.99)"/><path class="cls-1" d="M165.69,116.73,18.23,43a16.9,16.9,0,0,0-7.49-2c-6.46,0-11,5-11,13.38V372.79c0,8.52,6.24,18.61,13.86,22.42l129.88,64.94a21.11,21.11,0,0,0,9.37,2.45c8.07,0,13.73-6.25,13.73-16.73V118.18A1.62,1.62,0,0,0,165.69,116.73Z" transform="translate(0.25 -38.99)"/></svg>